<mxfile host="app.diagrams.net" modified="2021-02-26T07:38:40.575Z" agent="5.0 (X11; Linux x86_64) AppleWebKit/537.36 (KHTML, like Gecko) Chrome/88.0.4324.182 Safari/537.36" etag="u6AuPa6jvNLYv27PYS6E" version="14.4.3" type="github">
  <diagram id="Q3ywL__4ACFYef5Lrf9i" name="Page-1">
    <mxGraphModel dx="2200" dy="765" grid="1" gridSize="10" guides="1" tooltips="1" connect="1" arrows="1" fold="1" page="1" pageScale="1" pageWidth="827" pageHeight="1169" math="0" shadow="0">
      <root>
        <mxCell id="0" />
        <mxCell id="1" parent="0" />
        <mxCell id="llbAPXWKrbpJi4MHYYKH-1" value="" style="shape=image;verticalLabelPosition=bottom;labelBackgroundColor=#ffffff;verticalAlign=top;aspect=fixed;imageAspect=0;image=data:image/png,iVBORw0KGgoAAAANSUhEUgAAA1IAAAFjCAMAAAAAQcoUAAAABGdBTUEAALGPC/xhBQAAAAFzUkdCAK7OHOkAAAAJdnBBZwAABFcAAAYlABxoDQAAAAMAUExURf////3//+/v7/3//f///f39/lqd1/Pz8+3t7Vqb1e/t7Vib1t3r9/v7/Ozs7Fqb19np9fX19u/v7fHx8b3X7+bn5/n6+fHx7+Li4vHz9O3t7/Hv8Fyc1fj49x0eHgEBAe7u8FSTytvg5kF0o6Ojo1yd2J2dnenr7RMUFFuc2FGNwleYz+nq6VKQx/Hv7cDa8PTx8Ka6zDY2Ng0NDfz9/Ud7q8zMzEyFue30+YOhvdjY2GiPsFeY0cLCwt3k6U+Iu2RkZI+Pj018qfPz8dDY4GuQsb6+vq6urkuBsFxcXFma01BQUH5+fl+JrVKAqLKysk6KwJavxr7M11KCNH2evLq6uj5xnpqxxneZt1mErEJ4qhgZGVaVzqq+0MTP2dDQ0FCDryIjI4mlvicnJ/z//liCqHCTsmiRtr/X70eAs+Hp8MnU3ff6/S8vL+zy6ZaWlisrKt/g34iIiEdHR5+1yDs7OmlpadHc57HE1oSEhKu9zLvK16nSjkh4pFVVVUl3odLj82SNr1qIr93d3fL4+8TR3D8/P/r7/Xd3d521zLHO6efu9PX5+kqEuGOKrbbI2G1tbezv9N/s1+Lm6MfIx1mb1JGqwFSRydXg6bbG1Nvb20h9ruLu+YupxXievtrm8U96pOXo69bb4eLr9FeSygcHB+jx+XCWtKqrrLvN3Pb08pCsxVKLv8XFxdXV1dPU07DBz+br5m2o26eopqmpqbe3t8fW48nJyaHE5Mnd8FhYWJOTkrrU65mZmZ250m6Xu3+et6jI5cva5/39/zIyMmBgYIuLi1SQx7W1tUpKSkxMTH6y4ERERHR0dHl6enBwcGah2KvA1KO5zXJycv/+/vD1+Xem2oGt0lWVzLzP4o+xzpC846TB3kJCQkd5wZy93+vt732hZaPMjNfe4mWOxkl1lEpwMM3ewoWnxUt6XI6xh7TKpoyz36G6kWGMnFp+nCpDWneXsX+moe/t8Yuucz1ZLURbaG2ZX2eMTT1ohx8vPvH37nWLZVFxW22bmZa1nekwXkkAACAASURBVHgB7L0LQFNXtj4eSGwCbWJDmhgLQasxolKqcERFQbAK8lZHFEVFXloflJeg6IgPFPGtI76wVqwvrCKOgrZQWquAQBWrHntrO87Y6XTqzPQxnXbmzsy9//v7f+ucPCFAgtjp3JuV5OQ899pnn73Ot9faa68tEDjIUQKOEnCUgKMEHCXgKAFHCThKwFECjhJwlICjBBwl4CgBRwk4SsBRAo4ScJSAowQcJeAogc5LgGWlKqmUYQWs6Txa5TZZ7DbbbzqjyzVGKlWBpPqr+VQoOXM+hlRYZEJKp9IJ/JrFadbzwF1EXAxMKHHrp/KM6E65cwQM1gz3RWzpuGHbkCnjLi5NK0fNTjSs4lTjicYVw8FO/+lsurqDErJ2LbHimZiYWjvPse9HLgGWPZcRpS1kLGojnhGD58Uw9O1GhlhWWRWlra6+WKfW11eqKiQxDH7cOqVqTJpVVdQ1qrk9/vl1oXI6hT+oP0W/ZZEVlsnS5V+srtbWSQz7WcowfynxoRpKpP/ThNbWyrDOCELz6y4bZIrFRfxJel7cJRZ76ID5QfN149ncFfxl3NkdnmRxhX4DeeDPN+bZcMDa2bTPcDqt2cWqowQd+3uqBFhWUpdUp0BF5J+M4fHQPyutyDLUR7v4say8KiFKrU7MOKd/3nyymkSxWTqmGs8yyjrPEBVOkt/1y1ZKTSfpzzHkynSAqpK41rNWnXU5hITRQCyrqVQYNiz/peooT62KEQjE4V5ab16QzM7QV2rTHiSlBHkrvTWWx6zlhi5jFUqlnBMOXCgzuwtTmh2ssQKVt5o4qRWWrDo4HwWlVLpzLwPWXY38dXie48CPXQL0AAOTYiE9jEaOdTS75CqBXKFiNGINk1gQq7LxEVtmnBVUeDUKBIxaImDkCikEQ+6uEkj9bxYqxHJGJUYdoJYhy4rdUfNIbkKLHpRgNbHmhBYtOlyD3SqphiqLSqFhLJPntnBRWIIOWc5SoDKL8VJgkW+BNDSqUCyWS3EVmDAcE7EUyYC0vpGVAN/LkV4VaPzxTKRggkMqd2JlQYwgK6qoprY2P89f/2LQH9aoLM4zbkjjappjua3ABwVhlKqNhFuR6BpyGmsbw0Po5WYiRm7t1nE8oDWnFZLOCuTZOY3nTBc41n4KJRDqGavQRcXm51UpEotrM/J2FVbmZygKb+XLGr1ClBZP2PbsVnhlS50TxYwstKIqqlJapY1rDBU3psddziguldTddb98syq7UV3i3xQVgHoBua7NjfQWaHS3/LQCWV1YVUihRHezLj9Yy6jDLoddtF6Jwzx1vbwDVIx36GVdfpaqriqusVKRlxuXqCs+p6iNUoQWa7Nr1f6Xm/JLCYTZ8uz0YI1Aln3XM1AgqbtY1Viprm3VRTU0serqy9pyiLE5AToC/cLVytKLiVwW9SXBarSllBhyze9mDDLASPK9CsTY6X33RIM3LwvYMhymC8zTt1iXeudnVirVsWGk7ulPhMRU18n5LZ4VyRDPVV7RXF/BMgJVWH1mKZ1jyA2/arHF7XIsfsQSIJGKytRW5Odc9s8sCLxYEFUYFSyTFzTL6rz0T9j+3FR45QWW6+SCquLYutwQuTYuoCZPoEsvdNY9KBHo6pVx6bWh1aE3m6pyarnGYGhsbWYcExqW4acTZNWdq2jJULZ61Zbkt/hXNZwr0XUgUglRJdpYqbS2uLox96K4tiQgJ0Swq0gtrroRKKjNkWlTMuLiYm81aSMbqTHIlIdFpZeoQptqEwIFyrrEkpzs0oakiyWtNQFVtxLjILdtq3yhVzArzXLXMMrEuEqNoDAwNNTdW5urS6yOk8nimpTiEv/QCrmsMrRCgprOCqp2NddBpkpave4KpGqcrZCqKwqrm7IYaWlJpb7qd1CYGekyVqxQMIqAwFAlK/YPjCvUJN7ICQ2sCpD7hxVKA0L949Sa0pLQQiTACtTZwTUBQKuolnqNQHE5ME4tVZyrLCmvkLPKksv+pDQ66F9VAoGesYIqX39BaH2cc26wio19EFCbJ2ODWyTahDh6et2hQK8o78JQuSYq3/9yaCUAKzYnXKCt9xaENZcIwnxlWblIWrerBAe5FlJomDrvVmX+OS1EivFOrLoRJdd6VguyChrjHtSQ+cQahSWEeAf4CyQN2WBSykr8w3yjBHdvSATVzaGsNlIc6BsqEDSG+/sH+hMTtjw2K7w4oFGZAZECkzDfW/L8lEpBYUtVaE7kRTXT7lYLvcIl/vligffFOF3kRVlxY1hDmHdVui4gu8Xfua6oqelB8K6oAG1sU02IlEwMYbFRKEi1Li7hFpsVpQ2LjJPdvNF4MzfYW5YfV51vrvS1u5+MzABZU6lAVX4xtPWWe2hDdchdZUBKTkVYUa28okirbqhvbYgNvFjRmudN4lKoK0/IF0irq/PTNdKm1qbWYnVVZF5+eG6Fqi6sYldgu/QdO36cEqBKRLpUVW6iINQ3TpKbJxVUFBRm5EnYcIiUV1z3JIp0qRABK5ZqbhUEsGKlsja2tKEGuoy3IC7ysqCqXlKYi9qekVPKqkp5lArTVNQHa+UkUokhgYk1USodREoZrFOGhjTccm5fHJCy8gStQCoXSCLD1QKxujS/urQlX3DzhrsgtDlQoGuBSFUI2PwHWYzYn5hApJim9FtaVUZChSAgJPRc8y1xFERK2dCkrA4Jv+msb8mZeBV6RVaG7VJodCGBcbtCZKH+FQ27nAOK8FLIqRD4P4gtLbpZWBiWV10R1SiGksaWhwZmRonrLiZ63WKU1QEVLY2S2vowZV19XGlRrX8o7qKd1HLMaG9GSujljABBYl5Vhe6WurT6nNY3UV5fIy6MDGHEzXXyBq/qgIC7tZd1N7l2aKHuXHiO+pxODJFizlWcy84NPBeclxUQHqVuaK0IK2x3L6a7cqw9yRLAs5TrEnSK2vQ4eVWSVlLUUhgQohU3tegqCupLYlPy1dbrQFd5UoX5FXOWO11mQX5+aOKNRv+aZnW1b3lpQE3+5caU6hJfrVhQUV+Tnx1KWra7NsNdHh5eqAk50ajQtlyMi2xQ67zqJHizh4YpdTWydgxxkabOK5tUFml2ZnB2/uVQ34ySG8Gy2qIwdWlzlH+Ub3VVZrlYEJdbE5VdDXWD8a7VaZQtt9TO+V5V7rjFwKIadX5CrCS2UVkdpqwN925X4Qu9GjSyEpUsL0TtrVSL48pDbwVLAoouC6pbSgTncuKYyEaBIKSm0ttbTXfBhsUpsluqQtQkUu6BYXHh+eLqIn9BQE6Voja8IKM9A8NtAXcy0tXyLIk0LDIQqYnVF0Or6v1VvjVydU2tVBOpE7R6JrLqFp3MO0sJToLCOpl/QVRImCAKKBVQFZfhG8rm56sYbXBWU3BBKzoJuvfkDDly/HezBKA8J0ZFZvvn1+gKQ1pClLkPqnQ6hcD7ZnhsRlSAup2xy1Y2ytqWu2HuONu9Kryg1luc31BVeytAHXW3Qqqt0YUVV1TXZPsz8uqalnzUM1YaGBUVIAgNJdWgNTQA3Gt3BWi9Wpt0lwUltbHa6jaWA8oGyxbmR7bGaiAHEm1Bgc5ZdjcvLLu4sLS4uFKaEZ5RFRWoLYAxTFVd0JJNIKWJK85Xq+ISpSXFkfkV6lsNTVF5EKmQ2LpKQWBdrK6aaVMNUW+9ghnUTHHUg3Klf3VcTaikNVgWUFQhDWwOlAb6hkkjswWCOs8MZWmFOzIEkRKoCx5UsIled5nYnEpJQ5RzbG6FoLIlVKbMyqgPbCezdCMckUh5Y40NTLlbqA4tzM+TlNRflucWSJQN2RrlgxCm2LNSILsRHqAM9WeQqUKdTFCb1OotyK9XSW7WKsp9Q6VRUSppRr6kVN2UUsNhvz5xx9+PWgKspLA0S5ZVqFZkFSpluXlqJT0MZaFc4cwwCrW8ey87sTqrNItsCqxKiRe4QKKWK5QqqUQNVTrLWS6TygoLoRJI1VnEgGW8CwsVMOMLnAuRE5WyUOOulGo9y9XeUlYlUSsppbbEChSFhYVqWMiAV1lKFcN6q+USXKBUagTuWTKxuwqpSoiJWkyCIVWCCauBgbAUzLGlcVYz+SkVapmUlRMTrp/HnI17mGckaWFsZUFReH5FRUtrXFRBpXdLVKI6LzisPKfOP+eumg1ouFFzqwk9AmxhVGMWW9egkOg8wwOacvLDbgWXxKaH+GsbZQG6itCbhl46cx7cOu7g3M30MDKvOhcXFeTplNnNVWG5VeK8oipvXUFGYEtrQHBSmFyqbY4MriNdyrn8ViBzuSFR7J+XHpgVFa7V5dZpomoqKrIvKzLiSnZl0KvGQf/yElBdTm8ptQIIj5uxbj1cWZRXbQedtm3z0630uUTUwZ7l1B9nnbybdNpQqptMabnunFRVrQs4F6bsBVMfm6irUFeUwvIeoGKVTXWh9B6SVl4sPydQVkqVYVCn3AN1iedi1bG5utASicDdPzQ0i7HOBntZccVFXWwhCbVzaEaYs0CtDVTHVkrPaf017lWxysBKdXldoLtAU1FXzhk5lE3aQI24VOocqtXFKdW6JnV5iSoqLy4Q2UwM1Nt8OmTnOPBjlYCiKiq/qeMa9mNlg+dTmR2V0amJ7PGzwzKB+VE6ZacJARGAg/TKN0ge/TOma0ix4Yn/h4cTBIM/G53NYbklOGo4xXSZ5RqfBpb8Cue4pT9Df4i2wMosIVo3O4iWbWsUqYy02zJ1x9a/rATgrwD3VfPH9i/LCvw5VFI05p5o5WDhP6siFyWrRAXBeQBihf717UIIDBG/5GsvNikFhiSPP4RVEE5S6GrCUM9pkz+J9rcjShqHuavpRDqVlgz3o3S4xGm3Phn9CXQREZ0irWyN4tvB3HntmDh2/GglYHoA3MN5QnypNoD0f8Z/fq+VJVdPaGEn2XOBLTz4OksVl/KMP464FW6TO8LnkTvOn0kncRKigW5o5urUQe7oZI4YOkF/sf4fx7iUuFOM5cafjlPoIBEAUVmYpaAEsJPfxx1wLH78EmC4x8DAkkCOqwbSPzMBeckZ9tnxT8+aG7CB9oh36Tm12FRpkDL/RjemS1WA26CT7GBCFxGsMvDRk5RWZsHRD57oDHAHycBtkatdSI9S5zfxh2vwtY0IHrjkKT26jHZQqsSGNrn9ht2UJkOsOczgDtvGhjsLd8Gz45I1u5orL+w0Z0ObbQ2UdvBynPqkS0ASFgC/mxJ//wqT6RUGNW2igM0K9Pe/LLE/A/CYqag4B9Vefu5yRVxTXEki77JTWZuFxNisKnjdGYiVJkIhB2Xp4GJjD7GFgRWlMAdqzpVUxFWDiULABDRptbgPSUWYLozM0uAGEciq1uoqxIwaXlJhcLO1jQmqONrClICKszlSrVaoC7OcOVcJHGSwQyAVqyBheoKgUdMZS7kZOBmOdvJPl0DckaaGM2KCl1yZlYV3EaVGxMKhGckbiFyKTVuGvY7/n0AJoF40pZSz4rx85bldoYYMsYyq2rNOoIrKVqt3lRv22vEvibpZ4S0VyMN05+BNrVKWB6KqCSS3vAKRiDgqs4kxJRZQ0EyOa0y2X5h9tUR9KyoRJnBNtTYACKVSxgZKnavCqoPTQ1VNutDGokaD+VJWHtt0yzdMdbEurjU9zJpN3pQb0xqqd+FFcnlQ1uVXwAOQFagC6sqrY3U0pIthvCuoI1wTWKvNIuzjiJUqAyHIrKYiQ2dfNzkja7qMVBVV2VXUl4tRN1UXm5qqqgzWE0VgXRy0Mj0x3uV1lUauhr2O/59CCeDl6B+SW85IivLEyrxqVVaWt0atRv0pyfDUCeTBeRJNntb+jJbebK0kN9S4xgCBIiCgsFAZVwgDsbYB7nUCeeBd32qppFCpkWQpWIF7+c0CYJe04q6nfSKVmJcfAMlkqrNLBeKAAHWWd2ypBHkPTMnQ+CsFilvNGm8w8c5SSAJUgnMpxapzMla965bNqKs6F5WOnCl1jcWR8PZg4WVRohRLEqsDMVhJVlcQitLT1lbEtl7WlxB62GpvVKIdGloX2FQMN0bbSVFenw8QDAuJKsiDpVNTUR5X6OyurKg+R6iF0R/a0MZ8g3wJErObwvIuGt4YtnNxnPmkS4Dehlm62MgqRlPbkq/LkGDcjq4wXytmC6v8M+tQYYqitHXUVrOH0CLJ99SWoJ9FjUGIpXVVJVFR8motKw+N00Gk2EpddU6TKvHWrqyLGHahafKPqykUSAu1F+vtEinprpSmwFilQN3oz5bCV7S1URwLmJUKEps5XJU27lIF5kUV1mVDmtESbclAvy+raMwwvey7uCupoi4B+KkMYOX5zQGC0oxqd0aZhdGCYRVoh8VFQmbkebWMuiFM5e0t1shkGKB1MT0RMNxYJ/UuyDZgVxdsuMMq/6RWgUCRqGFCW2IFqjhtAOOcpfZWl8BNAs3B2FvegkBfrVwp04iVEnn+XbG0MafUloQd5/yoJYDXn6yqNCsyjBVotPXp5SpG2fxAFysTKOoKxek6vCx19QlaWxtKpqxLIovOKfNuSepqBe75jc5MQ6sgrFHgr2WrIFLqMO+SG9UYd/QgpLFJJfUP08TVqAXqOmVgul0iJStqUJc2ZCsulgvkUfnOqhuNgib4+TKC2CjODS4gpFIgrstpzA5k8OYQBGbDO4FhS27a84ao8oRI0dXVDVmC2lo5m1gXW1cTlhWnEQj8ayBSTHauTpedBSeqJnVULUw5sfUQKaY8XVcO7LSHSlNaCY4EAu/iUEFWXqnAOaOuqrVVHUoKpiok2F2gjmwNrbkVEHerHB71cgzb7E6L3J4sOc61vwTwCOPy/ZuKGks1F0NCi2+UMGysb0EpGmG1FRVJUVma8pDY4ha7GjBcJpQ5NQpB2I3QqAxBWLBacC48VhDXpK696J/tpc0KgYuOb62M0dSl6+TMufzYxIzmaueM/JK6lEbeoGDLjbACZW4+I61qudwYJ4jNA4bkNAmAHgJ5ZdU5CAGrvBiHpaLVN0yDf2mlNgD1lVFqY7FpCwOcgxFQECk6XVwbppKH+DOlu+LE+ZEB7nFwYCwpoIIpzfOtqda4hzUXhzai+ASxvhApgTovtwWOF7YTK+BFCk3JuCilILBRIW7MUPo3Z2gSKT0mtKZK5p8bpc7P0epqs+TZkSUKbW6s7ek7zvyRSgAtirC84ryk5jqlbyMj2ZWvkV7ObtG5a8rvFt/1ytEqazIEqrwou9vs4vAcpaCiJi5KJ7iVxyqLdym9Q2X+xcXFkSfyqm/uKq7xLPCXyuLywuOkoXdvFtek3PLPv1Vc4xUZikppG0Eza84Ts4E1lxtD2YJWRp0frJRUq2FijM0SyFWsLPSySqWRysqDG0pQTwubChm5VOodF8DAcmYjsYKLECkGKs5lnaugVKeQYRSHqiFDUFpNKEUixVTXldc0Q5Jjc8P9Sfo4kWL867ThkU223guyoxcptBxLQwIFqov+KL4AwcWiSk1cKVJFIyIqtNGzSsDk+2bjvZOVrQuNvGEP3tp4y47THrME8LBUYnFljk4ubtilVOY3aeK0klDfm94asViZWavS3MzLkkRV2c8lLDfMPaNOpdWxwTmB2pao0qrLYo1crtF5VUvlYnFcbpVKGRUmqUkvkcsV4rDIc7S3KUULVdw2ZmTA1uUGyoAeYdVsc2ToxfD8LK2/QlOXHxoYp1Wfq60KDK3CIKpQ9YOiRHlcdlxFtVZRERUbGBpiq6kepUMoBVtiWJMGKqBWFZZbyl7ODRSUQyPkG36yXdUCdTC0psvBSbWcSNVXQvuKChTIwmtsll26Zx6lGP8qWS+MuAmQ5dWpnJtb3AOgSxExGnVDMJquYZG+xFyqaUoJ4Q44Fj+pEkD9Rb1R5legbygkLk7r7pxdJT8XHO4P+6w8D4rJ5eywCqMd19asU3urXBtYVSrIKleGNTT6a2tDL5f6U4MrMLySHOTOtV5m/W/FaWoLMtBfJfDHixcHE3dV2CpRXL69tdrQi0pB4cWsquD8xPLauIpSf++o8LzgBq1M2xAcHByliLt72TkKw4IbsTe8Vl5bE5zXcBMGNduIkdcloCgkTSGhiSUBSqSaGRegyylRxxZqWGlc80W5wL1YK1M26uT+2sDi5jgxI72YDhO7rLHcW5l/0x6RYvyTdokF8orsi4n+/vLqwKyCqMqK9F3quFAu2BLc6utaKxlJWHnFjYZKuVzt39iotO0uHGf9+CVAvYuwlCng4sCIMRRXLibfWVbO7RUjWhG27CNcwAUgEpRosxC2iFU4q/2VlIoU0Y7wD44sAiUxcrmYTO3w5qOmD9fLaTMjSga5xfmBOp6JuxJMkKRYrJKKcRNijQA/KRAXt0R7Wf7PZhZS/+IinZIJjawJDw8OVWkDA27mBWbd1QYqK9WMJKS5FYBU0ajVVilLg/MVoQU1/iplY062PysIaNRerKLONptJpisKvsxkBUeGh4frNFkhytgCnfrm3aZSpT8slIz3xZAmiUAQ11IlCcnZVVlZm0ERpRz0f68ENFlxYXFoiYWeQ4Q6kqknQKxKXU1MQjkmPciAZcTe3jKNACP9EZhPJQjQVSqcVYy7u6ICcZmkEm9vVHapQuasYTTeEpXYWylmVNirIGGXSeDeYDuxGhkuZFRc6EA5q4mrliABhURcGShBFwCGjXHx2cTeYuIgl8vQt+2g/5MlwCoSddkhcVZHEfZQgaBuKfw5JsBTe6pxl/wtUoPfeoA2UensLFH7n9OQsxKAld4TsPFwXPU79KlyB7rkYDoB5xNS8wRhropTS5ydZQGBaobbR3yIHc8Fp/K79Rc4/v7vlAAD+zXillN9eFLEUNUGk56vY1z15bJOEoQtxbnAuLgKcoLS13DiyQ2QosP6ffwqJ2/23DKuptORCi1hjaiIiwssKdUw+j2UPg5wp+hZ0JkOcpTAv3UJMHKJDOrfj0IaZ5mEizbLCRkvcD8KYwcTRwn8by0BXpb+t96d474cJcCXAN8O+1FKg2/r/SisHEwcJeAoAUcJOErAUQKOEnCUgKMEHCXgKAFHCThKwFECjhJwlICjBBwl4CgBRwk4SsBRAo4ScJSAowQcJeAoAUcJOErAUQKOEnCUgKMEHCXgKAFHCThKwFECjhJwlICjBBwl4CgBRwk4SsBRAo4ScJSAowQcJeAoAUcJOErAUQKOEnCUgKMEHCXgKAFHCThKwFECjhJwlICjBBwl4CgBRwk4SsBRAo4S+DcrASfKr6gt/Tg3IeI5/zjMHFwcJfAjlMA1oTBV2FacDNtCkVDEXntCuRAKnVL1jISQLIGARNuJWD4hho5kHSXwY5QAK5Tv7pBG7969jX1SMtVLOPqknrNz4uWswbtHj743evTJpb1+jNt28HCUwJMqAXbb7TGHz3RAhx+NueSENuETYd5LeGe6nu++v9W3hP9tV+s3310Zc+mJMHMk6iiBH60ENiQvPDhvGn02tvnNm/fu8fFfPfvaydEblm66ds0gWtQ+44WMxR+/RlJnr+SlMq9HE2cwntdan+B3ol8/v4Q//y0Z0/H8aDfvYOQogZ4vAXly/IA+ffoonPs4KxQK08+tj1vfSx8N+/CDCx988MGnn7711pYt77z99tpnnzm5YcMmocmcAf2HZUUioVDI2pk55vUFe/5LAbbO7mr/OG3j3fAbmQl+KTnhxSHlJWp3XrC4SXnsTNhxuqME/oUlILr3yaMgiRnJjOsyt6AVCz955/23Pv30qw8++OjChQsfffARJ17vv/PcS5CuZ49xAAaBEuFn900I4ycFuXHcZBJ3uVjhXeofl/3nPzf7Zial1EfmhZSHJioVJFg/YpR2u2/CcYGjBNqUAPPKha84kXJzdrMgbLq+vCR6hZNTamrq0tEnX3t27UtbtpB0XbgwaMigQYM+/PDCR199+tb7WyBcx0ZvY3rZK1XC1yftIZFyc5U4uzq7O7sr3OWvpI14U12ibc1J8et3wiu9JirM35uHqzb5dmw6SuCnWAJOog3vfBTxH0ESmUQ5cUl7mrgybWZQ0ICgA4sZgJBTL6dNnGy9/dyWLebY9dFHaBm+/9YWDrueeea1k/eWbmJgC+dkDBCGfyfuj18Ir40+ybAiVhi/ACglG7BkCXjrvyvL9i0OCjowMbFCmx8cmZuZlJQeeSu7KjARc5r+FEvQkSdHCRhLgBUKRb2eff/DCA+glMz1je/GLliwYGGb77qyde+BTiXv5q9zos6ja074g3QtHf3as4Cudzjx+vQDUrrQOCTN663339/yHClex45tHb1tE/Qs9DehdQii9U3PffrKaExX+joafv1lKydNmrQQnCdNwiJ69fp4MFx4R+jUS+Pt31QXFZxTn+KZWdTQmhFbcU6mYo034FhxlMBPqwRQyZm1H3m4eAClXGVuS2IWHZ/z8Rzj9+M5H+M7Z86cYcPmzBm1cKt55q8JhELIFqHPNRZLITUNN4w++czaVwBeX0Ht+vDDvYM+pKbhhQ++guL1NowaozdsutaLDBkiwdL3B3341kmh8PUFQT79ZftGXgcv4nYcC2I47PihZJHe2sFKFeqSxvCiJL8TJ7xSgmvjArwdM82bPwzH+k+nBESC17566mkPjwgOpSbGjNrr0ZaeespjEPb1njJ2K3DJyQmtP45g4yPZEImAV7AdcKhFtnX2GrNpw8nX1q59+x1qGv6GFC8g14doGX4Fo+H7fNPw2Wc/ferpDz99acPrCwml9o2c85SLgTN0NHCMWASRovQpTXxVssTY2taGlvokTxgEo+rKK0pllrOfOsCLfzKO5b+yBESCk+9f+PADHqVcl6SNinBxcdlrjVzGj92KVltqL1srLmQMcpa6dOkGINfbLxkUL2oW8nbDC4M8Bl3YshC6VP/BUyd8/DRYE2OXCJfj88/O8YgYmQwgRCvRvHxYjSQxrDGv2TfJMyHzRl7txcBzagkJFpqQDM3MbWvuzBN1rDtKoMdKwIl87NZ+pk5VJwAAIABJREFU9VGEB5knfEikej/de8iQIb3b0/ixpEsBlEQ2sqfaDZuEgRiGxGvD6NeeWbv2nS1vfXrhI4/evSM8hr4X5OZGKOXh4vIUOBPrfyQk/fMfq2cnC0RQ2NoJCcuoFLKAuIy8B9QOTPINb2xSQpwc5CiBn0IJsCLRpncufPqBx3+on5cBpbZ7uOw9vt8qbY/euPzAgQP3bJUo7vauATdIpqB1CVn6OAHpejkxm5a+9oHHoN4ffvTW705BlyKUGuIx7Lqe8T8SvPz8Ev75t7A4/yXqTRblxOEQLRipIlEXlUcGwYSUmuLaqtDELG+5Q7IsSsux8aOXALmYn/zowtbXHj0aIJG4L0mbH/F0xMiBq63QmjVr0kDRG0X2VFuILESQVCwzZyWuSbj1gwiPD955RkW6FIdSLkNG6RkPHPiPf/z5z//0Igyq/1u5WsNzRLsODTyGkuJ3YIVRqP1jsxty6dzM5rzGOKX+ZMNJjpYglZeDfrQSgEmt19sffpp67/DrECk3NPxcXCIGTlp5vh2tPM/tTC47barPj5NN0UmYAZ/d5tSLuno5lNo7ZPuamcR35fnbc+euXFauzc6L9PXyS2kOzteFlrp3ZONjpXJv//KQu+E56QkJmc3BUXWxJWq56Wyj+D1Odh3XOkrAxhJgRCc/vfC2SH74Ow6lYmCeGDYwWaLo/7275cfdXaFwHf7mCoiUhb3ARj7tThNtWLuhFwCPpa5eHqVctn87Uez2vTvIGex29+0r3hP6j7815KZAVHLy6kIrlc5yaRvY4QWGlnJliTaqpijFMyGpPvKmLi5R7a3QSMlk0Y65Y4ejBJ5YCbCitz98f4NgQ3J8lh6lIiLWJHvDk0Li2p4kL58vW9UzKAV1KJXMeSzX1Tt46uo5LkO2xyzxceUZIzPkpaQYMHb6BncyRRR5+p3wfJAXEhcgbiMiJDIMksMf20ulKK3QRoXT2QkQrIxO0O2Jlakj4f/TJeC09P0LzziJtsETXSIhi5/L3oiByd6urs/LvJXKo5bkrZTdLjuo2gZS9QBUoZ8YwkANP1fZvglzXIBSS9wlD/sPPvrLo2CtPKr09p644/V7KpX8YdblpvwCIFBS+o1d2tAAb5IrCJE1BGJVzqWXwxqDH6Tj9Prm4JBYdGAB3fCcObGjFQc5SuAJlYAT89KFT6WMiAZ38CgV4RKxZow3EGLPiKlTZ86cakkzr6yZPuIOaMVop54ZO0+e6D68SAGlJrpJHrptNOO5L2bHnXfvvDv33Y1LBQJ3/7ri5npPP6/0cHjSFvJyYk2qqLRYeWlgRnGkb0qCn2duQ742FB1YvGBZFcQnVMCOZP/PlcDoDz5aKxUK0fDjdCnePIGGn6tkwI6Ro0aNGm/xxdao8WfPDh26ff1idBn1BPXCeCkfH8nUkTxKOUOklg2cPx6MedajRp0lmj99KyBNINW4eyeW50diSBUsETcvJpoZ+CxzwwGSVCP2Li2BHGZ6esF42BJV7q8WmwwXllc4thwl0AMlIDry4acbEMyFFymy+BFKUcNPMiB60bgIkIfZd1zEuGEeEeMiXM7OOiJieoC/QCSMHzsRfu7JaPiRLtVH8tBn2eqPOc7EfVzEMPobNhkipW+xsVJxKZSrnHRPz6Sihuywy4XOvJTgOH15WzsyZzhf5RwQp2sNL8r09EzxrYmqi/MvlNjreSvqiZt1pPG/vgRYaFIfvkPV0EyXghGdRMr18+hRcOzjPi69Pfgv74Tn4jFo6KwgtkdqmVA6Jmbd2LFjv1095+khi76d6Cxx9Vk2exjPmZZELh4uQCmLxwHLubIko6AezbqE9DxtRYC3nIbW80YKizP5DQY9w4UlITVFmQleXgn14bVxiVkS7hIbmoFOnF+wlVQduxwlYFECGMz09kdv3cM+kRGltgOleJEaEL3dgxz+rJCHB0RKH3DCIkX7N4TCA5c2brx0f8yhj3mLHzqcl40kkbLgGwGUMk+cFx2NRHkurq44B0b2lKLwqPIAbviv+XnGdbw3IHAaZ2VpRWxGa0F6khcMHcH52stqS89b4wXmK05OiAnAD/wy3+1Yd5RAmxIQCpduubCWrAx6lIL3BNfVy+lShdGjIuB2Z5UIpURCkzLVfcByEgmRAXbbsskfcxY/Z9gdl82Gz6yLi7lQRWwnkTIy1JvMOTnROJfGFrekeyYkJD0ovliS5a2wqiyZrIOsRlEYqINBkC6pLwiJvZwlU3TUEORYOImWnjx2bPc2+MW3KULHpqMEzEoAI5ye/eCDpSRSJpQy16W2Y4AFPFuH4NeGhgydtVgghP8sxhKic8mg5Zglbufq0s3z57gM2l42sQ+hFBp+LmBKUkWM4Urrsv3KbuhdIpIlDGBskzqrkntXlufXpHv5eaXcyNNdlmm4MyAPnGLV5nTaZDTuSowVCc5JomseNIQ0neMc2nEFdxXXhGQYAdOrFwarPNy8YN26STMP9EJ6DCdlVpJ07Po/XwIi0Yb3L2whfzsDSnH9UlzDD/28A2CqQM2+zhncLBdTzk6eMPf06VWr7m+ACx+Eyggf3S1U1bLJczwGTf52CVBqOKEU/KKG6plOof/Vk26fnrbq9MY9jLADJU4qVsfV5jVjNJWnb3BjWEmAUs50KFF8PhmNJCAsO7jFNyXJMylnV2NYYGKWTA6hJcsGK5BejpNDtITCo4dPJd++feZU/DSF3sewu/fpuO5/dwmInr3w1WioCeYoRboU+qXI4rcDKNU7YmTa9OnT47kPFvovdk0fM2bMgrQjjFQqRYQJ0WOW1NLNk4/vdVkUA/ME6VIfg/MwcH6d5xd/heN3ZUx82VyNChzbc+PadSwjdc+quFicAxOEZ3pBfnmAM3kkWSf9fowUEasrmzBSBHb2hMwHDfmxpRKxioFcud9K0irwxth6eMEBqZNQeuRKetQ5k1eu9WQde3usBJycrtnyrr5m01k9lqsOE0KMS8HSLR9uwUh5nGOuS3HeE0CpN0ikXFxWJ1t6UNAW/Bro4zptwqPN6A8+TRaOx6OlI9JiYmLWpBFKcRY/l97jZl/ZY2LtrTw62Fu25NuFMz+ZOvU2Knj7woZUUaOMlWpkWYEhwTdSErwS0hsawxL1zUCrOSRI4q6RS7L8yZMpxdPLMzOyWBdaKSts6ecVXiiUntlxAI5TePGc8/VLigqAQHMXWU3PsbOnSgAO3b1YblQ3WkKdEYNmEh5JT/HtdjoQKSE0qWf5BDhdyo3zRDfrl5oMkeo9e5+iPzp+Bw8e7N2WJPPWTHo9/vUd07daqeD25WzTgRW3b6+Ip34pvS7Ve9iaZIomKDNyHTxYtqQsOj4+fv3CvqnC1E4ZsCqlf1V+Q24SgKf5bm1cqVJMBghWSm3BDoufEasrtNnBiM2ZkOTbcjfK90Q/v10lD6On3xNxWK7R/dPPK/yiWgWRckhVpw/gsQ+K0OBmlqqoTdIFqaQq6bUnFbPfvvvY8NaF5+DlQ6R3SDK3+Ll+vmMUWSdmnwFwuC3Zty95Xzu6MuPKvuTkdTsuPbZIXROi3ERTuYYfr0t5wCEeflHKZeaMr3wxNjk5eUfZciemc5HCPbFSlVwW0JTdgPEhfklFeSGBGPFBzcBOZAqCwqg0GIIFW0eRp1dBSr9+/dIzYu7Av4RSFL797d98T/jdqHIGuCEZBz2xEhBd27RJOndSfPyp+FNdUHz8gtvbuHfeE8uNTQmLWMHiCx8g6BdXNTiU6uPaB+FcTLpUGrp6IVL7qC22smz+eOu0fvz4shWPPc8G2Q1Z0WY9SvG61Gqy5Q8Yu6YN37Pr55et4LC+4xs11XdGIyu8HJsdmZ7g6Zn+IK8OctWRvVyfHCcqGIKl9r+b5AeROuH5j/MiBuWFUfuLcxLSPU+cSCjKUFvR5zrOj+OInSUgEkrXPvf2o/nvTR9j5VVu+W5P3hd9uC8mc8IDspNLz54uEi5958P3uT4hSnhb8qSDS+ZtXFk2yiWCunrJ4reDLH68SA1fufo658fQbgGvimETbnMK2eNkkOWClwGlhrs+/zKM6PDa4FDK5/MdE9ry7P3x5NtOXcVeR8vMLD9MVmjIrZxML78E3/DsqstZChUHV9xJ5ufxl+gFUpUPiYL4hP/jPMPFsGGEy32xBzMh9EsKDnXmGn/trzZj61jtbglAd3r/ww8jhiGW8a/2GJv+1ldkso88fvOsFGpXV5Wiu7mx7bpU0bMfffBaqr5GOG2YmrZjx46x0avnw3q9ZoyMHJLIPBExhEOp4SvLXqBOKssP7XHZ6zJs5PnHFinKdKpoZsw0ddCAPTNncxY/GraFXBwyMkavM8TLZcjxySsQwcK2+zScBbued6F/WFQz7HqemTm36gLEnC2QYLqDpNxrTiSE6/zVQWnJKkQQFQiEzOkvgr0gUKATCTVNYohtB9ca2Dr+u1cCTkJm7YW9T7t4DPvoPuoi6mMHX4mrrL/767+78NGn77zGdbF2j19PXCXqteXC20wvUhGIpIs///zz5Z/vjNF7T+A2uH4pfcNv+MoJ15+y6keBnT0lUkLR7R3xV8ZMn76Dc0jiUApYeWhIG8Yex4FSdomUsd6z4qySsNpbBZlw88OI+ip/pYbpsKdJXFcbqmQIwdcFUbNCIDx5ZWaQNvcED1QnPMPDSKfiys+x6OESYJlnvrrgMeTpD9/3dnPuDzNVx+SjeP31LR98eOGDl+61HfLdw5nqPDnhyU8/Gi1k9KZoJxaxxHBB0KxRCKNn1i8VwTf8+qwsu96RcxKJVKqoc242HRUJF0+cOPHq1atn0O0LSTWilLlnEsSrN0RKYJdIEXuq+3z1Z8Xq0OzwdK8TfugTrg0tlHTQ1cRC3HAZy1xd8ElfMsBsOz3rkoiJi4S1w5O0rH4pUZUdXGvTDTtOal8CFE8LU1Uwz2754KOvPvTw+M3RPWo1vp1QUNCp5KMHXvoNQq++tXYpmoxCwbX2CT/ZPdS7q9pyYUsqTP9GTpxwHSCR4uEB/VLQpdqhFHVVtSFCKSG65a61j7hnTN2WFZHeLUJ4ezJ0KZc5nEpnRKm9Rq48SiHGLbLMC4ktqVucw4plcJ+txeh7dF2hdzesVMwf16OOebIi0dKrY8fsXLz40pgdKzYIRCp1Rrqf764CagH6pe+Kk3C5ML/CgpVjw64SoNAJvUavfeuDD7/69IJHxKdBQcnrFi6c1Nl30sKYNETQ37x2ywdo/730mhRS9WM/DkReFjzz0QcnU7mR6uZ3HDR/fITLOMN4KX2/FCx+nC6FOm2q14YKjuCwc0aeZ1AVKZqzeVrdXRcJbi/6mFQ0I0oRLy4MLcd0rwvf8COGj1dyKm+Mo4oqyE1CL1RBcV1cpTcwB3597fqcpFfPvA7/jTOnt3GvIE1ccFJmce2tehgqTiRF5sdRRxWhoIMeuwTwoly69q2PBn2w5ZmtXw378NLwA2NnT5kyZfz4Dr84OmX82SmzH91Lfe2drz788NOroxlCqh+V8PiFzz31lhBxY9sIwYG0Q2eHnp1BdoHn4YkOYwDX8HPz0etSbY1vnLVg2MgV6MCGFbNHjBSwhAKlEBLdUpcy50zmCXK9a+c+a08pGmRAqvS/2BqZ7tcPMy/e1FWoeYdby5REgr4DTm+cKBfx3VMigSw7JSHqXFwN1/w7kRl8McDaZZaJOLY6LQF6KWFql00n3/nqwoVP335tW+rS546/N6DP52MX8W9U7n3afrH3adDeveMWPerrJNp08u23Prrwwftrt8Ghm+oI1/bqlG/PHEwVOm396sJaK4K8ODn+9ddfR4cQN6p3u5kRndOles/ZPnlRWzp0aMakR8n4PLrTtyfyJxLNXT150eTthyDZZHc8RFbFvWe3G/geWjRy4KRHj5KTDyffVj2u2ZSDFpW7sjJUF9VS75mAUb93MYYKaEWPmOCK0Ad4KJAynBT3evXLr7/++k+lFcGevrrK8mayqKPrqr5BVynH3TM9UQL/N9Podc1JJL330qcfenzw3GgqR6fRr08a4P75pEUeQ9pLktkeCqPvEjE5ebRQIBQJN6z99MNBH215TSpkrwkZ7vn+COXZSyh66cJbG6yIlOrk1q1bF0dz/VKcj59el+rDo5TH9dXfwta+zuK7buw6jnZ8O+lYT2ReJJy3YMEkfLmGH6dLocwmr9kxVs923Q6e4bqBr8t78DUkVweG1NRT1Nr68JC4UgU8Z/VNQFgo3CEvJFiqX379d6I/flma5+dZK/bngQpi5fWg9pyC5O7Heoo9UdY/pTREom1HoA1deOvt0ShGytmmw2MHDP980vYuRIqTrojJj/pSzxR6Ou49u4WA7qXRTA8MkbCxhKBw/+bCa2xq+9ORJ6Fo20LeEz0aKKW3+Ol1KY/rMSvV6iCL7wD1AMyQOCAo6PPkBYPbp2j/HhG7bTfIOWgdfPz0KLV37+RTS/RsOXYDBgwImjirJ0UKD5GRS9SJYdnhueTjV9QQUp0oIx8JIJWqNU8NfySR8E+f/ecPvwV99vefZ8W1eDbHlmpvcEAFqPJKysmuVjokyu5HLuKuGP32px98+Ok7z26ATs6rQlKIVB9CKY9hVoP0m+98cWT8xuXLlwdtI/VD9Rq1/756f+1Sm6fEsDvTlhcIN71y4f1e1jQR9lovhtkAkYL3BNfVa6lLDbkecx5+ra9KXjV93V6V9H++v7Oz8+B9C7b2hEsI5iLg/I9HTyKw5FHKxWU+RcN99SH4uj0vkTyUOD90DiKRMpksLe+xG1s8wLAatAKrQvKKUiikUl5+mL8zI9AU+dVUIskvP/vP3/6c6Lc//Oef2ID8lMzW0sqQenT8wv53whMTXzUXax1SZVfhY/IYBkFQnkWL76MtJ/lLeSGDSAVBpDDzxXUEy0dM/s4pbdastPjdnFsS2Tg+/XAv0tvEAiV+hJbDSWhSTAdtJobZti7Z28fVJwg+fuQ2Sz5+epQacj3tvHsHfW6u3ocXLBaZOo/tKta2J+M9JTg56TAnUhN6Q5eKmBz/uZvMzZw3RCpejikVrz0RFVSjjs3DpIto0GUWh/mXpvfrl1fKqL7++285kcLisx/cBPLyer8CfzbW90TKDRg4vB5E1nthPEhTIQdueJAOyGr7ZNtuwxONFSx9DU21jz59e+s2xvw4NfzcPx+7vXfvKWv2HeyaVh08c8oQocRp6ei1SPSDT185ibHgvIiap93D68K3B721gYv5YCVhtteGhTsQE3PmvrLxxn4pvS5FKOX8UDJY9lDWhhDw+ei+BYuF0k0WhWIlfVt3iXZP2idz6zNg3SGy3e+FSElkgx+acUZUtHj5pk2bej2J8oI4YDRjYrUuqsYXocpymxP6+eVW//I/f+AwihaAKZVIk1ickN5aWZnt65lzc1eSn2dRXn5DJowVdf7UB4yvg7ooAbbXvbffwjSZ768dndrGc1OvSy3CBJwDDw73ceuUfIgOxhtECmXvBKM62pJfbXn2nhWzQRfZsvPwhk8vvCSC/crqZSyrevfwvjNnziSnjefHS/EoRd4TJFIKySqMr7BCY6LLknHZxmtWk7V7J0RqOma3XxU9AQJFKDXAOWiqGdsxyWPWpIHf1CC7k7bhAmoqkECwcvXli9m76iFS/fr53voZYZS+6ff3H/4LJ3hrI71awtxDGzxz87XZOZ4pDa2N2Q3pnr55IaESh0h1VtQitNGg1q99iyx0W1MFgmuwm5lfAJEKcn9jElDq7JqD/R9KHj7/sBOSYbIKEik0cKB/oHqzTqlO28j+d+H911ApYV2iWc4sOJhz6/Y6RvE6vf3Rp/dEiE1nNRFW2Eu1belS1aZjk84aGn6GfimI1EHn5z8ZeMhg0Lb4n0wW9oGbpT2U662nymBdjB7IG9GBUn0mps02cQavyaMWTT60+hKVYU8TJ1JQrvgyEt/lbeV+v/+BEyhOsP7zs19y7iKlu7w8a71l+Ul+dxOVGZn9TtwIKw3clXLiRNLdJmMQNH1CPZ3Nf9/0yDoHv6Njr7wF49xzz24SWXkTW6AUpp9w7gMgGu4zHN8OFgfjd3NqgEjI8EXjJLy39n1gIMyIDJne4HnX42XmxLCbPv1gbZcBzVl298KzxoafUZeKOe/TH47i5MvQhsiUudfj45Gb4WXVE7lO3XZ67tzzt+NnTCAXKNKlhr+RNt7EFPsAoh4vTljCBaTpCZYdpiGJhE5V1NBYy6EUNft++/Pf/v2HV/kLvHU5XjVxznHhXrm1iZfzm/0SWvKb4rTFNxI8IxFbEJ3ALI0mdpB5CUCimG1w5Pvwg/eptvey9oLndCmgFBp+aw66Pnx+z7xpB6etmrZqFX5W16admbRiI2jiPQPcwUgr2nTsuU8ht+88u5TkqUcqp/mdQBm89uyFT5d2mbBIsHXBWbgsGNxmOU/03jBPuPWfOfLj9o5JXOfA3r0fz94MFysLjt3cSEU0SqETM2LGIXQ4u7gQSpFIcXy4hYfLx9eHeeyfcOnJqyzKluZdOn9v1aucLsU3/H74+59U3POB1pV4NzO98Zwy5EFCS6wiIKTI70R9XpV/pe5mUYJnM6SKOrW6WQz/Wy9Dn+yz8Dv66K1nVCJ4yqZaU0P0KLXdhXQpiaT/xm9nrPlixpoZ3I/7a7e2egJo5AKTMnCNhEq09O3foP235dmlT8SUJbr31ocv8Xb/zh6XSLQVDT8Pj0EGi59BlxrOidReGrnUjlz2cijVWbo2HxPBmO7Uq9eqMoyX8vCAeWKAUaQ4vi4RQ/7x57/NmPHFNFPETJsTt/NEeQnXQSV68we9DR049dkPv+DfHdQ6lIal94v0F5QGeyXUZrGljSkwqRdpvXsp68ITTpzIyb+s98q1k+//ztNTGbT4Rr/9G7THtqzdIEpFKwOYZaWyc7oULH48SkkkG2eNwgwXQ89eH0p/PLVZu/7i0OtDFy08YvRFhwVdCJuw02jYQAgRT6biqRHHHixbp7UXPj3ZddNeJDo56RDm6Rg1EEZ0gy5lRCkMvRg2bA5+ben6yE+27u47mozIj0nQMPF12rNj9ougoYf0KAVLhZ7nuCF/9kKYsKSC4saq0Ep1+3lHexwYhKIv/26QKYAUN3ge+MMAguShDSm52iyl7kFCZKxYHrcLLrUJkVGB7sq47BqYAIMbA72ZxyyRn8TlcFV+XBIKtz3zzqewbz/3DBy3rYiS4UYJpXwGjCWL3xqglGTeLIyDHTRoEP06II8hQ57ymDLpQNuZOiFGS49t+RSW+uee2QAzSNcCYMiEDf/b3hr0kg0pipzuzYU97cy+sn0YAGamS3Eo5RIxfvJ8q7R6bPLhw1ODOikoG/Jodsrufafgdfj66zHxnzuj4Qfj35T580eB9aj542f8DXNk/9MzAcN0H9Tsyq5rCjwnozFOHBF49DBdE6r+9Nln5D3xww9//+0vTRo18ZLpchPCA50Td6WnRF1mFKG3EF7pRH1xVZZKEtcYnulFQ7NoQCPT8/nq4dvsNDm0ojo93uVBEXxbt1zw+PCt16B0o5pYtztzyVBXL1n8OCN6f4nbvPXXaRw5ES35NfMVOgIavzCore8njB/I+SbY/yJg/wNM9lgFhS/iWozqEHX9WJ2YXtcYISOUTjoMkdL3S3Eo5UxTQQ2b8N2I2+fntqOVc1fOnTsmuuescMy2DUs3bNhw8tF3nC7l4hExf8GI82BzfuXKubfn3rl9585M7d/+6ZvphRrslV4QFZuY5fyExgViaJzmF5/9/e//ie/P/0tkJrIoT5YtjfRKyFcIAnNPZIZpBCwsgeRR+6AK8KRKrC2Cr3tBOeeQ22W1+wmfsHv51eUYJdp9Wv72+xhc+P7bG+C9Q16TZqXY9rb1utSiIUaUIpGiWWQ6JZcpk4JoYggLQpA9jG5kTr79K2pvvj0a8GiT9c9JhHGAHcofTPUiwWj0SaFZ1uWrBm4iiJTMCqULDjv3fx4ohXAuXL8UodRxl3HzZ7oOH/4mPsPFWIgNf2KF4s03z+/YKMCYRGTkMQclUqGIuGbxtsPwnuDMExHzk2FB5UgBruI333xTnvzt+cCLtVHBkUX1SelFzQ3FIbrqkgB3fSikrt8fFoXfyQZm7xD+4k+//ePXf/pSw1pGjgNQSQMa61NulTiX7EpPzy5RCZS64CQIVUpNbagEJgxMHJeUFNmqrRQznbD4qR/aOSv6Men6oA/eP2mTHxmJFIdSLjBPcCi1H+GPj+/f/8L16x1891/fv//69vWnjxwICtpmrSxFzDNbPvL48NO3N0B/s2pntLxKiEg+EH6RNWKvsQAdATSp0V3KkylVVjppH+JQ+KyMOQ6cJYcksvgd9xg2f+pR+AE+T3FfKNKG4U/mKnnovHLHJQH6v9C8bIu/poTtXMP8V5xIISTa9uSjrpLnwdngneTq/GjdHji2MCrnrMva/BrfJL8TmDogZ1dtUyXFReeJ5f5Q8+3kbHE6V7A0atR6EUr9w0/U6zSaat8T9U0KgUARVgTsxDDF4kQAp1RZ1ZB0wi83KpAzVjxWRixy9WNuzJ11+/TOVTtX4dutxenD694/tsG2V60BpQa56HWp9ftdXF5YPV8/EKHDv+gd8dPHvH5qudVyEYqWPgulCkb1Y5tsaK2xvYRMaiomm7BCDMOkbkqVbhm0xaY3hD47aPjtQwfb8PNlLyCcC3lPGFBqn7fkoUziDGdAs4+rj4+rq/PcHWj4UbXrQZE6zDf8eJHCtPOubuj2Iw8VV2fFy4/WHeHeI8g0JhuA12tGVF5LPU1+fSP8brYu8Jy30V7ymDJlfF1ZfVxo/OUnJRWXai7nZabs8pcSNuX49YOA5+ZdVCI6gTI0IzjdK70mO07GJfDvJ1YjJi3usBlktUza7lw16XORoJdNaUCkLHWpWcd7e1yfMWYJQpR0TlcnTlyx8FJb1rR9Da0vEXvvlU8/+vCDLUe4cVnWTjPuEwq2rvjVzl+tWPH+ihVWljvj7EOjAAAgAElEQVS3Ctd+8NUxu17UzKQxn7/xRuHMsuPQ+3iUmgqUiogBSj109X7DGi1LO7iYaOumro31xrx3vmJCKY/JQCnZ4Cwj48uxgQu+3Uj8jvY1CYxGeS42/1Z4jm9mkmd6bnh+Rlicf4Da0BbsnFkXR6EBdCAKDMNqwgo8I7XeiqYcz6KLpZhMJyAf8xdQpLMGnT/CVAjEofmR6Z4pwdrAwn9Hy/rcSUfoVdlFEXVyeNXYzzs5anHIgFJDTCjl4XF8xj68UR/CyxQLK4RRCs/3d5P0n7jgEt5/TtfatSjIYM8Ker225QOPC1+9jdYhHJVQbzrwvhYKls+K3wyaSYu2y8PRV0XvX3gJWpJFxjvdcNo0qWzduh2Y9/NFPUr5OPO61FSlROa8ZBJ8htrRt2uiJ03CZKFTMc6yh2jb4e8GvPx5GiJjcA0/18H7jFz/5pWS8s+/ffvNpIWnTotE6IVH+eirPKtyz/KvziguQDikE34IMHGzLjRAoc8SzjFJhmntsTPsXZvghdFVSl2KXzOACu292gcnPHMjPftltl6WU/LiRF1BQr+EnOxKA3gi04/N98dJYO6kxQCZe1sXLz6Gj93fxcfm7pg3+NixwYv7Ml1mmNOl+H4pgy7Vm0SKQuVL3Jz7cP+G5n+bf7eJ312CBxKsByLrfNgNz3ADHl96balQxEBJsQ6cQsGB6JlHj+6xQkf3DJ43afnJDz4YbZf9UMicx9QcM5NjBh5HRBUPgy7lwulSEsW8NSO3z98+atR8y+/kUdg5f3b8yS79nqzfbvu925IXzBswjUSKUMpHMvi71XApJL6L/vFPTwQ990v655///JdCb/00oUapgtUaMc4TL+bfDG/2zUxJyswNzq+9GJdoMQG22dntWdu3B9Ks0LUkBIeJ5bHNnkVaNWqOOPGmr1dRQU69Z3prbBZyyGrU5btyUjxzo6oqxbwwGd4C9nH78c+GSAkF105DWRkzvVufUzHxmEZp+vTb+nD8ndyCHqW2u5hQysXj4xn7OC16MMZCDG7/wXQYHD2cuGAJs2kTI1Ux1mUK6JV68iUoVehvvreJiyZsLSskUnfcoLt/b/l9nmj4kgXLj3y1ReSUau3SDvZdY2FnEIkGv7ca0z+5DIIuBR8/zuIHXUrmPm3CUJoYm2iI4Us9A9gaFLEo/qSp66aD9G3dvXRq9PQx8RMQBo1Qysd18HeTMUUiMe09Z+ghdFBBrrz8kh4Eh5QHnlOaTxNqrKsaWWWotjWv2Rc6VkpRy65GLWaWV2ICKnO0sjU/HZ9HEqIu9kzK95eqM+o9wwMVyIG0ojg9qaU4uMjTs0BbKWFwDqNuKsZmUXFVpaSLKO0dM/vxj8wduxhm5Ttljz5595N3u/n96t13v1p32KpBzuKGeF2K854woBQnUgRI3tNWjhgxAr9235XYhc/MtDM7V+zcuWKFyTnJInFBKilVm+Bm6EGD6tFItDys30LDL/qOM0a9WqOXl0xafu3kBrvafdSIIlPHts2r5yBo0SCglKvJ4geRKhvaJm4lCRRP4yBSPYZSwiOXLl1aEUMjuEiXkgyOnzyOj4EWgT4KCpIzZfY//vxPX7j/eGW2FOsCjbNao0JTW1BfQoxUjEhj2tYaDNo94ZdQH7mrNtZfzTXHrJao3TuJEytQNRWcSK/SMAENXp6NauIvPXcTDcE67c0UeKiXaChdVuodmA9/wJS8iwRd/x5EKCV0ujPrV6889zj0znvJNokUxZ5YZG7x63184D6q3d7JZfPnz2rnbWDcExNTFjN/Pc4om9tRwVJzTSTcRuH/EJLp5FKoWBjqnmp5OonUMh9Y4h5aEas+SxZcRZQ6Bg1My6u62qIepoNlk8+OH392PlBKr0sBpSSEUkPg0ODSfub5CJdhk+O3XrsGebSTndXsiFiGcToSbdSlvL+bPA6cOdYREREQqd4o7GT/qqgGtK+8POsjWzOaLhe6c52++nadQawQSkKhrqyuKw7Oyc309MwsirwZcjHUP0siNviL4wLjyVaz0+VOaWVeSmbtOba0tj4pnGYkYBhlbHhSUp62Lrg+oSgqjkbTY6+7f214fUJSZHYoJ9ePy7bLfD32CYRSIqcRab96HIF67rl33jvc9XusvffEfiNKHZ1+6HjEuGHDIiw+48bpN8ehUkREjBs37vrIO53dM0W2FY1+Dva/r7Y8s0GKyHkiy9OvEUq5Ppx4/vz5Fe2+B2dGv7vx/unl3XkhOk1MvjJmzJUxp77lG368xY8XKY/9U2g2XQpPaP6dMn7kjhX3T99fnNoTIsXdZxCJlMd8BJuRPIRI9faYM/QseOMzZTzFR1wzBo79998oLc8Pz0lHHNkkTNYW618qE0tpzur21ZVRKAN1+cGRJFhJKc27srXVlwOUEvljihPllYDqgdeDOHd0VXlmtp4jWJKKywuSEm6FVuTDQb2hPEDBR/BWVTbWYKqegsZANdqInKRxd/vTXBBKiZzuPL5I2YhS5ONnjlKkSxFKHR1zaBincHS8wOwvHkP2zx7RaUEi+hUjYjBS/6MPAVUbUjnHArMrrkGXWubzcNma+ZOt0SHgZMyj0R2YC83Sabcqkm5TbVOpVJeiz7sbLX7OepQaX7bgu/azan13asF3mExr1u1NPShSFFJ6FBnRZSRSQ4aWLeAn9Pru1HcLvlsAhlcWTFgmYlViGSx9+S31sFskYJoOmK8tXySoubyEsb2kcoWy1L+6tgFzH+LslNzIqLASTO7Wrgzs2gFzOqOMSvFqLWWdA3P80Agk91qpuOKWZ0JLk7pil6dfZl4g1/4j0CyMu4X5Gn138Z3AdnH6kU8mI/rjo9RL75wiXYpaXp3kvxOUcjt6BSIFDQND5nhdntfnSYy4j1776P3C6jt8X2JHfKjvFM7wGFyMmQreevvkJssTWU6XkswcOHTOnHFzhuFnWg7DLuDi+OmjLa+xbQtGCpwourRDb57QW/y4ht/475ZQ0LEgNX25BS0H4BcUNG3Hna7nK7QtC5gEIXrUsIgIDqV4kTq7Y8keniHxp0zsmVc2tRfK8BpqsFwZmNFaAAhCOzA4XxtXqXbmJhclICCRws/AGTMmSgrj6qLCW3wzPRM862tuhZTHJepnIyXMMZBpzbCHqgXihYgE6AEx7KMrcKakyjehpkLMVtxKqs+vVNEuRpbxIME3pLJUC8N+bmOFUsplRCD1jo26kYQ4FlWVSml7JqaE/9VrZEQXsTxKvfLOO+9seeed+/Z/39ny3hjFNpBGmtrxHRn6pTzMLH69DSgFkSKx6T0EViq9/JBPrfHD+9f23r96mQgckOeO+XBHnMj+5+HxwTsY/oFRRXisAqde5FG3PHqE68OZa17owGjgMWj89L4dewF2wVUgMIrUuPkGXcpl76j4AW4+bq4IX+QmcYZnEn7OsHNihl93nyVj71DmeoaCZo1cNGrybKAUWfzGuQw5C+d/coXCXML0B64+EyFSpuJjGY2ktCkb6gr6pTwxCeLlLLQCQQwkCjLVhmgSqtLQjJst6Z7waUpIj7yrDSz11vs0cVcYL8EKQ3uupTpJdwcdGCy/Bi9jy+RgkyiEeaLOXaCCh5JvLAdUAoHyYtEJz2y16ly2r59XSywGpaDtQck5V2DPCc+CKn6GxfbZs0z+X7PFoxRE6pV3XtryCTdIoFuLWesoZNDUzQfaKi9mt2WlX8qkS/EiNez4i+bR/Lj169f3X8eP3P327x8/cN8B0HKY/rsgWCaeeYfC/71zZDSfKZYR4SGQxU+2bCAnUu1bmS4QqTGje0CkeB8/iQIohXEeCF5knfr7LJl0xx7/p87vevdMhG0esyPZWyYhlOJEiuujMHEnkSLIMCdGow7UNubV5EJjyS3YRaYIgAPIeqVlVJKAwPKQVs4JN8WXnHC1TSWVhh4vfcryUMTKRA+haNvyO/ugZc5cdUxklDf9OUg/IMQ3/dZlubQ6L8k3PxFABYJF3TelRntOHBqVk5S5S0cdvjiVZVhxBeIHJqXU5MeW8m1CfUI/oT8zlHppy8Idd0bcIXrXzuWdOyNw4Yi5Z2JWdILJBpQy16XaoNT42TGdUllM2bfkC5h2pU2Drk2RovxFwtTUa0sx1BhK1bOjady7UIVuYIjUMnc0/F4AFEZE7N3L2T3MFy7jp+9WLV3KtEnR1k2glCt0qY/hiW5Aqd5Aqc+pYsuOeh+1JPS5AaW2gZ9qaed3ZBN/Ya9NSGrpzOSjbm7eZEQfcnbdAJKmwSa23kvKzuAcMJTq5QqFBYK5QI455luLUhJoFkSMATmnliFGc1vGVLX5fQzMgueaQnblpngmJHim+IZHXfQvVcoUGr4OKItulWqEqWzf2zu++csff/vH//l2TNsXIZcWkxjpVV+rlKpic/2KwiSwSCB9VWlxiteDi2qxJDYyIcG3lnqm6AA+KnVTQ4oXbIL+3jyets3hv3jbAqUWjlH05ehlO5d9FWLQy/IlaSv0xW3ttjhdytJ7oi1KbV9zcN60Tj7z5s3biN+0UwttrIBo/2Geg0FfbYE3neC1r97ZJli+Y4T7Q6CUi8u48dut0epZU+8su3PA2rhka3fVZt+lHQcVfSFSeosfoZSHHqVcP79DUG5OU2fuS445tXnEMrzDrnYJvG1YWdtkneBNvxldvW5GlHJDBMFpM/cZ2SavmcS9Mecu54CoTSrolfIvzw5+kAR3i3TMLhpaaoxhhDO5am15BVk6zoVqo4Jz6mG88EpvzsuvqqCLAlL61YepnJjb3/6Fj0Xxx2/i5SJrA+q8q3z9Ii+zgsLalITwChJiEqrK/PoTvhnerPgyWnue4Vo41XJYhYWmNPZWup9X0c04GrIISWM6qXaW2X3yWyaUQsNv4ZjdfRU8vaxQvIwPt+h6nbtGrCCRSu04z4RSsPhZeE+0QanJZVnDfXz6WH76YFtPFNzPB65L020VKahdSzGnzoULMKpvW/vhRy+Jlu/gUeppzPpEjnaT2hNMY3g3dEvDEV1af2dA0GEOpeDjx1n8CKWygFLO89LQuRZj8QUmr57AdceVbYbzXQ+QUCTdjFi4/R/yKDV2ADQ4yZkyMOJZx5TNnoBVbMy1JlJUQaVytX9YfvCNdIRbro+8m1HtD3XJ6slcfgk8VHJ1YlwGurx8U1IwICvyZmNVLYZC5Va5LY7/H16ifv7z//fNJcYAcRZ3qoqt8Wy5qGQV2iKvZngoUYrQnJoaMjPzYpUC59C7RQmZwbEBetckXCv1jstvTqHpQPyV5L8EyfqpkAmlniORUgBvuA8WIG6h/+90nb9IcyltRSd6AW/xs+49QRY/NMW2lxVCjaemSmfk6n3FDpESCpw2PPv+Bdj/PvV46qNnYJ5wlnC61PG0g9QeUpoTbXvvOTogfm73RMrp6vroU6fS4ImOht9RCadLGVDKbVra2d6wKZpRxDh0xEVEzBkWcfzQ1B6RKFhuIFJqb5nS0PADSjnvmzCOevVA1PGH/j/85t+xLiX6bLBSMcZWFTenJPjBHliTHxYgE+ubdG0rryHjUILkyspAXStiSXj5eUZizG5C8b5v/kgxyIh++z9jdiMaT9vLScrEdZl+wTD5ZWWn+NVc5sbyQ65UlxH9pSbQnWWVYeEJXr75pfqeKpK5XorLGTc8/VJa6rC3XZr/uh3tUQrSIe7blxpy9lJf+cS0FZ20XmzQpSBS6KQc3HHMTO5I/6M8SjlhQrX2D6hNYVJIJUHqUtj/PvzgI5gAT+tRqrfLnJhV35Pkwtfd+MHW8zDE7Ymfy/dNwSRvF4n6Xtp4f+OYQ6RLTdV7T5hQKmboILhRkOZGC/2P6zvwiIBIwWpAt9PlLXWaIxKpWfFXrlwpm8+bJ8jOuO/QEA+eIXqCOYsqhtPf2QT5o28bolvWt/Ck3Ewd+eGYBhHTYUfe1AWWtum/Mr+WLgRJ5e7K0kDtgySKlnnin1/w4kTLv+yAr047fhw3VcktmM6VAg36pVJaA5AMjBECVlFyM8mroAk9vO6XW4u8PGvCOLsJOBEzqayyrgCTHbTUJlLzlJQtc8KgVDIOd6u5YZ6OfetGlHpOj1J9FS9LjnoPHuxtNw0e/HBa2m1oYff63tsmvdY+H5zFzyL2hJn3BI9Sk8sG+ECNRw3vjPofHbNQCq8h+BtZe0DtOcM0IVQ9++lHH8Eu/x9pI1zJ4vd073Exq8BLBsN2W3I7Gn+bezeIMBbeWnId76PnJ7zDjepth1LzYl58isLstTM09oav66GpNCkdqH0d75iblSMsk7rkzOEzyfvS9BY/3N7z+w55DIkgL1ozAkphYIwtNyhWllzMD35AE+DQ9KKhiWqJhjjri8Z6CWW1QKD8UiJrvkCQTJInLP6CgZBWKgZ/F+j39YwKYFhldrpXHvqqqPEHUupueNZnl6DN5xxYXJ+QfjNMLTZwRhY058p31Sd45kQ1lcLYDinETyUnrwthKiNM3dZXzjzO2CU+a3Yt26GUuK/44ILu0rovouM52mnNL92AUp30S20vy8K8F89/fhrxMnd2SKtWLNgBH1HQcmt8rBUA8Gz0V089tRe+BWdHfC+DxQ+61PxVaGMO5jph91BHqIneiH/35O6tu0/uxkhha8l1uk8kujP5BSso5TYvZiiGVJFQtSOPcYem8gM5OxqW0ilLs4PowmHgsC/te+WQOUrRpF7mnD0i1gOl8A7v+gYZpI6eXoXav+pWURI5UPjWhAQGyAzNQOslFJp+wjOnrlSz4puvSaCIfvs/yfdM0mCWZ2IAg0RogVdRrEIg9Q9OSMrHmA8uYVbqHFbk53kXsxJgFp6wHC+/+vxSrHOX4w0kYFTKiluZXn4peaFKOCxij39jFhIUpoq2Xd08/cyle9xOS3ZPcMuIUq/oUUrcd/iyga9/8ni0bvM2UftM22DxI5SSyfrPhYvseHzXd/CbP3n+2bMLz55db5qGoD07iz2oOs8gjtOHFz766He3XTmRGoKGH+Bp3qRo41g940p02ayFCxeuW3jlSGdR1Cw4mG0I70z42EyXMvRLQaReRKPLA/pMGxo3J+L4yDN9R5Oh9bHn0EJDF8059t50vRGdb/h5oA+dPCaNNGfy5t337qFF0aUewuirLwAAVvOK8sbgXDKaowOrDk53HfWaJEZpE5UqVrj1yjfAJ8Kp3/4xenkvUSeagVSp801oCFQxkrBmryIdARUIKlVWWENCSnAJ0EmqDm3MTchs0JKpj2uecuc4B4TmN3vCWqEtBH7qaIAjpG1x8rd/+MMfvo2/xN+A2RN6kquWKDWdlCjFsrL3u+uX/tJLr7zy0ivPvW5VpAilFJ1b/IBSPhiNOGL1i/ATghY9jv6s/JN/LWj7JOPMHl0UkogRPfObt7ZseWnt/fV3nCUzV+9/GjhCKLVqzezxo6aYfbA6Ck6m5Ga6PbpdBMEu+NDhVNGdkdeHHY8x6FJDIniLnx6lXEZhRGI7mj977FSimQc6q3Q2cOf8woA+964sinB56uyOAW5o2lLDz2XIi5PNOM+fMPYM+J3ZvLgTi5IFP0PFVMn8Mct8URK6r2C2KA8kryT+RO4MXhAEGt5mIBQeLPsfbsqp3/7xmzEbeCO6iIJ6WiPVxSIAlVjAVNQkZNaWQtoZAiLEJ4vK9SqqLSQ+8sDWeq+kW6Gw9OGYnhsMHAG1kVCraur8Ja39vBrhiLHtzhd/+NnPfvaHf4wZzZrfIyt1x1GkZLzWWla6vc+IUs899wosfjD4vdx3c9n7Br/0d7Bi689wzXMkUta6jTYd5ubqNYvj11aX6s2hlMRtxIQXhhjcktq1kWgHVALyBxxls0hBmZJu27ZJJRSR9wR19fbuzaPUtLLxHjTjNn3pw9NerES4vEhBUOwuW6Hw3dVlqyesISO6eb8UodRTLr0jBiZbn1uLgsOfKdspoqf9+HQPDb8ID4gUXht6kRr1xTIT550HDxLDzesu2c+LwThgZUBJWHFuihf8aH0jG0MLySmJr6fm+YdmuO30qW//5//98S/fxHzCvQDJpoQg39a5qpTZSQk3sxipc9MNv1ytMwWqJbHBKF9dpld6rRpMGLE6rCYhob4xCyIHZgZ+KklpWDjcFYtSTvTzzBCL7n9DEgWZ+mKuVAgVjssd2LLKqHzEvMCK4UrreenmXkuUGvM9oRRECihFktQ9gkh9YqU1IULDb8+bAzCxaMc+ftup4ScBSpFzQ9dku0jB7gNTBkjviU7mCdKl0AsKkeqAk8cLQCn7yanXMah5GxcY+6VczFDKo7fLwBHkdgevO0uiOAHDd5JIiezn2fYKoFRyzPr162MmmaHUqLIlPuTsR3xhluEYbhzbDZHSc0M7MLE6Iyr8RmZSUnpOQ742tFSGdqBFTYVLEhO04syYMcnLlsCCjitFQtV/aToyK7EC94rgJPTwCqSV+b4J4XHAJS49VqCprMtJyM0/BzcKRKuIK37gmZsXRrMpcoKBIQi039sfoQFz0SOW0Hh0zD84iYJMvSenMjUKkLrGKzcETUPTnrbF9zjbRpR6hUepvn2H90XDj5OlV94B4AC9bP4hDTq7A5QSqQ6nrVpycEcnKOViQqkOarnlbttFCoEzWRIpQin0SxFKkS6F2gWRaj88kGOz96n93UMpGrQl2jCmA5RymbESImUpTugHhuHR1XX4wbKdPfOgnVRXz5+/vQINAwQ+IyP6EJdB279d4mMK7sfl4OWNY692q/6gfvKiw6IrKhZutxgC7JlecFeLEcCGcYqUMEuOYcLRx365VSUSXiOR0nz5JwTO7GOs4BbsKU31XS/PfAxA1MAskRvmzMsCQZXKP8/Tq6DKnaFLFP7FSSdSwuO4MfVcZjg4QxuxwROznfbL1K3nQYpgKrAyIEvpLRHL5RqVSppVg5l7bpI/oQXvHtqwRKnphFJ8w4/ECR/7iaTx9ZnbGKlUysCMacqnSDp30ndXviubPMRlKB8THXH82nhPkC5FKDVh/xDUarJQmVupuIputtg7auFWPLDUa9cs2somlmZr+pkIeB8/ckgyQymI1Mfkk2tJL764f3zaafjoHjNviJsl2dEqHhRk9970qXsePuwLh6TeFrrU0xxKSWTf93/IBbwwWzx8OPzghJ02hnDriLt+vxOLUB2bep1eAO8JmYR0qd5Dtq9ZgmhUIOLJc1fwKAU/YVEXCXZyGD28ErV/aN2u5nSKvn5jV2NcKQWMJfmgeo4XmVClSuUD5v/ih8++/vrrHz77kulQaZQEwvSH8VMadW26Vw08lHjhhWIl8Y9KSWjOkFHCjKLyIgYs5uSfI6TiQIpjWdgMgaIOsX8YROpn/8QAyszM+nrf3KIbLTXBDbmeZN9vLXwiMmVEKb5fCuYJDqVImLb8x6P/eGQ34ZL/eLT+PQTjvj137qptZk1mzHQRdCToEmKiP22MNtvGx8+kS3EiBW2pM/JwGT9pK0vQAwjq5ImbH6JRvRYo5cahVMTkkTETJsdMmGD2jcFGGfyVxs7sOgaAOQtuXcRumD5VKXvYx8zHj9elXCIGrnSXuD5sD1ToZQZKnRZdQw0Umr2L2iVux477p0ikeF3KY3tZpY/s4UPzJqdi48KrxA2BekV2JGt5qr7wpc6FcSHBvjBbeKW0tOoqCsmDluo+KoFTYrkM9V7I/uKP//3lq5r/SuRkyjIZwxaS86/xq9c5SwVybb3fjVAJw3AssGCddTl+njcrFQw9cqZUV+Tl1VKlJv9ZQx3wT4G7R3rOrtYZBpH6//6cnpkCRylMt+DlR5+iSOqF9opyN7DsyX9LlDLqUlClXvpVWfLMqVM/sfPLnb5vH2e9Wv/ebjORorbXNXZrPGaUH0rzS0nmWUMp6FKw+PEoZaVT1KyrkjdPCKVSEYPosTYWCjeql3ObNUcpj4gJ0w+uInW9DdF8clfGaGxM3Ow0MmKPmbdkyaURFM7FTJdyedpj4Ah3uIh4T8Q8u21p4uY1dw4cATIe2daRtmHGxIZViJSz3jzhAZHiUGrw8o0mvnOjb9NomSOLOzKG28CEO4Wr0cArWWGgLgruFl5eSQ/gm16i5oMbhSQEFzKs6Jc/fPYLFSzpqb/84T9/wclJ+/QJcbzLizBvopSVZjVmJoSXMHQWAZ6UVXmXB2O+X4z3hVSxKlkT7H+Zu0LhPaFPrjRbF5eolGgWjzXqUt8O8Faqs0rPJZYEhsZVN2UU0fQGXg2h3Xiw7bPbdo8RpYBLZPHrK1aQLgWN6KVfpU18+BCjD/Cz/cuHCMPE5oux9vrC3W34CUmkMGUb5uqlmTvaWvz0utSrJFJo8c2ZPLJzWr16YXz8qfj3pg8WtWHU0WY7lHIl84SHx6GpiHoGpw3L4JwIhCaRzZy+QYSHhxl3OkrUyn5GuCE5esGkBQt2rDZ6ohtRCiLl6rrnCswHs9bPsqD1MRTPev269fGL7WJnJQf8ro0LNw4Y8PmAMVwAMl6kXPeMSTMyXZ+2etbC9QvXR5+Rd5iG3QdUCu9SagfeSMFU8/XNcGfPkt3q5/cgjMH0U3+C7FHLIuCzrztgyZWzKiAqIfPuOehMgQ1J6dmlZPXgCG5IyriapJTgajFvkVDAKckz6UHtOer/xSlSMS/E8jvfGswTj1Sm+oGTzuX06+fZGsgPCbP77swuoJzix2XYuNsSpaYrjLrUcy+9lfaGHL4U5PNn+5c7F+e//LK478vTF7Ydci502ho/qjc1/DpCKaMuhdg+Hw+Mhq9a15S2pqNIZMb7NKyQSC2zhlIzSaQkD/tLHrphYm78niedAz/ZzDFyahpJO4wNaEjb/F+Yumn5/fv3N57ePOFFGtVLnuh8vxRQiswTrgPGHqIoK1ysFYq3wn8wcd0U/BbNOvA4yo0pJ5fWx0+/cmV62mQPOPdtL0sEZzf1qdkGdmeJGdGh6X1NF/XQmiogNruhiGY0yCy4hcDn/XIDVV9/9qq+Amq+/uGXnbZuvRszT+Ml0eMAACAASURBVDQkokWnzE/wa6iU6wWKq8GI/+eXmYGxvZwLOqvGTKVeOTq1hiGEM2T/yCS+5ff/zbovtcD8ypyEB9rHb/TxGcLSUqaMKMXrUjBP6HUpQqk35BAxvWu6rf/kvW7wYp8+qZ1IibbGL5ozZ/yag7BwtUcpTpdC3eNQaq/LnIFTzb3EO1jfo0xeg5C5tlE7lOKM6EApiNSrMpmPWx+Fs4L/9VEo3J2d3V+dOWYb3qooOZHxYXXNS+iESUBAokvzh5p7T8AhKYIafq7O6kmjPCLajIDE1NVwq30a9oy0ICdbb6nTzGy9Dy/e+xunT4YJhmv4yVxdg76bbBx7CY6cvXP79HudpmP/QapojFyiDAi8iHagZwG5/KXrPvtaY7ivL//+ZWepovvJ/25SPfVEiQML4EqbRZWXCP8YMVULi3pUAN9cZeXq0Lv1nvV5ce6m6n1Nen/WH/7wsz/8oWzzNj4wiIGdWheK5qgdT9NwYbt/coei7JgfsEQpvuHHd/VyKEWo1V1SAKXaNfyctk5fPX/+7DXn8dbuSJfiLX6oXccHznR1wwudpp/oiJxd3ZyTyzABlW1v9Q51qamDX5X1l0zj43CalitXrvxu3fkVRDuPGSqDeQF2sE5TT4EY0aWYoUMwBBEO9iaU4hp+QZNGIcqeFYLHuMuoWRApuBV1kLrtu5ECSsZpJjX8egOl+mBeHvUCDFnjrKl67hFP791+pedRylDRWLGysjEFRjY0t/76J6NI/eLvX3amARP+kGNSSyym91BfvJGQo1WayZRAU6q74VV0i2KqcyTxRxj1lJrGc7iOI1aouXR4xxffJG/cTXHy9XvpT2owR5rt685qVpUy8VaDVmO4UT4NI0rxulQblOIQx1Z8Mp2nH5GouNKu4ScQbbu0c+eqw6sPwgzVHqUsdKm9Hh8PnAldRkbNr44JvS5AKUFqL5EtpcKhFDdQ3qxfinQpavh9L/luxsA1FoTNgWtWg9asKbO/AwdiRSjlgYHymCjRqEtxDT+glMvTLrBWwJO3zQ8TP846IuiFXtJOW0a23C+d4ySESPXu7TKEdCkOpRZBwEB6Ww+Fz5w//Z7IyaLe2Zq6beeFod2HKRjD/7+veZMAbqwLlOLTLWn2S2+iuJmVDX4Jrd6QKTNI8L/peaIoFvNu6+t0VgYi0zaHIQYGnUcJbPh82qXd9GbCV3+Sbfm15Sw2xDcxyqs+N9Hy5DYotRvKk94hSY9S1Izr1gfi2B6lYEYl/qfLYJ6wjlLmutQcoJSrWx9ukqSOUAr7fZJ7RJd6Vfa9bMFIhI6x7J7af/0F2nF9VEw33AxY0aUJ289OmRBfyIsUPNGpX4rME0Apj70Qpgh4K9K4QP7Lb0SMmrV8w70NjFn1sXxs9m0JhTMnDxkyZND2NYRS0KUWeVCLk9x36UsDqUZd2bpBvo2xL107zq49kRKM+eG8v/7hF1zlRiTBP32G1a5IpdYWIWo6xEF5MTch5yImnTKIBtQm98AQ36Qb1DbkCM3BsChfz6JbsXQafx45EYu64tK94+55jYktt+KK8i0Nh0aU4n380NBrp0vZIVEcPOkXMFS016X4znQWIuXatS6FWT1meru9scwYNaGjlR1rpiKawipbuo+c2vZLkcUPOMFZ/CBSiNv5lOU0p6iLHJ2d3w2REgkPvB7/eny0JUpxDknqSeMHfTx5MoasI0o1LQw/2i4ri0+efmarsfp075kbrhI6bR45HrSajOgy6FKLPF44RGyIMU9lszDLxJm27XRDAo/9zwbWkYGNZWHxw0sVGKL68j//1IHFz4wbxEJVkZdUX1eIFf/8TM/gQHgo6YnBUU1Jca5nZEYhQ/uwjRBK+TmIoFRXyp0n9A5gRNj9REiWp6srqkjMbSdShjh+fOwJKE7k4/fcO68QSr2JgfO8scFcWDpet4QzKygluHYNOrvg9OqDw12dN66/3qarFwPleR8/MqKTeWLmqz4HZwzsimaPPHRo5MBJtlQIlnz83J+HJ/pTZj5+6JeaCV0KIjUZyGHVZePpKTxKYS57O56Pk1AzGDOlTY2n3iFnbrwUWfwMKHW87MqIO8uWjcDHsDCs3tl8aj2m/uoRYtkVXICNMk6kfNSntg95cQZxJsb0wRqyMWnW4h5h1z4RfTMMf7/87LNfckX46g9//2WX8EGKP8uK6zz9GsgrXR5Wj+lIxVz6JCdcsprEYK8TBWaSJs3CvIpezXUUU11QHl4qQCBQCKQ6IOu/ON3tWpv80WndImlUUXqNItu3hGTbREaU4nUpsvCZ+qV4i589TT8zaYNsWtGlOM7XTg+cPnPzzOQJ1132WobG5Hz8XtVb/DyOr0HD7+AEDPRATNgOv8PmfPzxx3M+nr3AFpESAqVWvjl82ZrrnCc6fEjNUKq/K1CK19vbeW1EnJ1/Fe7sIqFl+ZlKssM1VIs70ynoGOlSkFdY/MiITih1fMJ5DA+TeePD/RmX3rKHspnRR3oIpQRM36OLjx4dnAzvCaDUHqDU0BnIBPHlP5QBZXL0kxIpQ9mIRKqAP3725S//69Uv//jDn8w6iwwnWP8XV9ckFWEQPQdUKcEVcsgZYzpVWb4rMz04lvNS4vZqCst3pXveiIpzl4WfuIvIFaz4y/y//+zv/33xVcihef3HwzSzupuStGmNKcluvCwNq/O2rBLtdCmDjx/XL2UvSpm3Ea3qUvqsHpg6dfMnmx/N3783wlKkzHz8CKXQ8PM5iGhD+hEXHf3BMu0SMXJSXxvwQ8guT7uycsR3AzFXtckTXY9Sz0sWTKaR7FA02ovU0AmXpCqEybPbywCxkufGD4B9xdgvZdClBh2POe8O+4sM9RwLcg/n1sgW0//hTLjBmz9+mx5zByeR8VAoWBZDDT/oUtshUiuHP09MwZA3/bh6P3mRoj7eX3z92Q9//OGHHwLQ3dtBbtvtlqrr6j2D/eXo+G2KTPCN4tt5xtNYSWyDZ2YNedgSEbZJAkNuYKTizSS4pKtEb/6//+/3HP0xS2RR/1kxP28Bf6EdS1YAt8Z8rVLiXdlaZ2nyM6KUQZfiPdF57wlCKXMpsWHdBFPWdSk+14wIN37tQPT1vZYo1aZfilDK5yBGyLar4O13RByaZIsZWCgIik9LSysbuD+CxksZUWoCeU+4AqVIpOaMbzdCcNSoQ2sO3yY6ibzbRXDAvjN9QB83nzcN46X0Fj8OpRAXAJDF12oz5zs3ZzdCKXt5dZQxlvrInGZCpHCX0KWGAKX6PG/GGQL/I4kU9Kk/ff31lxqRyOa+c4iI1L/Br74O8CRQh3j6Ffibe5EjNIDAPSzHL6GYhI4TKVyBE3O8knL79Uvx7/Xl7//KOVL8/q8/aEQ4ZKKwqACLbdORrtYq7jagIywvryAlhPfWMFxgBaU4XQo9v6RLvWyI62cSlc7XzLUpa7oUzzeVdXJKFS2HLuUClKJxO8agYxa6FIdSEz5GFMsXXvj4eGefOcdnrzuAxs09WIwN92btXyjYduTAgAP71uwHCBrHSyGYCulS/SXfHSKRGjrwvWQM8BnzaAy+xr8x+w6fOTNm/QG7q7mIfXfdsrmgfWWYa8pg8RsAix9QykdyFFN/G2eqNqxM/HzivrSNNNWrtcGc1u6s032YAAu9nSRSvMVv0HWMMJHsseA88UraVcwsO7qzzqJOmdhwEL11NLEyolaQkNtwAX8Kaj1b2JiZcqsSHauKpjzPoijoViZZwJr0nLYgybe1BF5JhFLUvtMEhNRDpE60NNXyEvWzn/3191mW2Jjv1xxSSOfbSSybpW3MCQ/JyKjVog/a/GojShn7pdrpUuZS0vW6UeI60aW4DNBgwP0eES/wU7bpRYofL8X7+KGrdw3MEzsnzHHxGDpy4OyBszujgTPWrJs06dQlQecixT+H1BEYKM+Pl+J1KTJPoAMMFj+IlMfZGedlHQSIeqMbIiVgV0TvWL9ux7pZA68P6m2hS5Wd9/GZ+N0OTITdnmLW7ICT4HRbQwGYP1Wr66xoasy54cOHv3z0O67h5zN8lQXjHd+C4YIFq5b2GDZazQbtFHV4pMMDkJCmlhPNsQyeoCw7wa/mHDqrLM9W52eeyK2DRZ2v4lhW0MApOEL97Pd6b7/f//5ilnd/sdwYlzoKozyC0bFkKRWW6Xa0pfIvhCzBGZxpI1IWFj9ucIfJe8J+lDK1DTvTpSiTmDV3PURqv4VIWdOlJswZ4rE9ei4mWVvZ2Xfl+bnnZ8Yc7EqkuPJh7qw2Hy+F3iEOpVx5XWrI2RkHh5MFwYK4HT6fpx3oqIQ72g8NeDecy48cCFoxi0TKZPEjXcrHbckXh8ZjQrc2NP4sfc5OTlts8bw6YtL1fkKpNafIYTI+ZrsHodTwlTMwbWMbWn3nRxCprnPb/gz4wwZEeaZEqeGBrqjOg0Zl6I7iziUndefEbN+EB3Vkref2ue+CPGEeVc8Ug0j97K+evkVFN5ojC2pqahrybkW1JPn1O+EbZZy4vj3fjvawAnFjTXh4eE1weaf9UrspLqbRE70buhQESU+d6VKUTfQQpW0fP367ecPPUpfymDNjmTeh1JAh2xf4ILAz0XCf4Va/dPzNA9ErMLnUtS4n3iCU0ntP6C1+nC7FWfwiXAZBpHiJ4iaQMRcsn8/XHyArOteO6qiwrezHI8Z3efR1jJPvbWbxA0q5LlkzHpP8Eg0x+3nQxL+DBr2YFiRAK5m73Eq6duxyEgomLts8c/PmmVOjR5F5os/wlQNdeM4c46fgXzEoYuTmpb16PW7gMzuyZfupMPIptDUJNRclKEtlba5XeBjX8Wt85UCl0gRGFaUUZCRCpwLueEeF5xVHNepueRlE6vd/zS2IbGluflCUW5+emYlY05EJJHYNFIvTXpLrbhYXF+fkhnWqS3EOSWb9UnbrUuYW9451Kco8K1x8Zsyj5Pg1+wZ3qEsNJIvfhDkY6bNA5kpD52BBgInKyper9z4To3fCrQ6tdGMxWy+mXndWX48Ydzxtpz72hMHiJ4MuBT8dTqTgmO7TxrvQ1ZUTKZitQN1oKkyESLn0hkgNR3bhPaFHqTUYQbYXnuJWyGMoPJNwQ1wPjPV7sWcvc436BfuO2U7mieEQqbZMe0OkVKLUVPgI25Puj3eustjPKz8LMsX47zrhWazEmuWDkAbc9Drhq0V8MoTIdEfIaUbgnXfCoEv97K9fP/+ym8xbrS6tTLxcERjX4EWDEVMaYaHvBjEQ84rIsLYNP5oFkeaXsjJeqjue6EaY6kKXQnBd6YZtG5YeiDE3T1joUuQ9welSnEhhGvj+zjxSdbB0Hv5G9EGy04I6Lx/h7bT5CxHrxGTx47wnnMl7AoMgIFJ9IObqaTQq0eI7bW7M7UuXllxasnEiXoT20sT1QyPmzJnDxZ5AvxREinSpeWtGkUmTYKodDRo6Cw3zrm7H5nxQUiIBRApAvLLPm7xIEUQZaAgnUnhftJ023GYWT/pESUZOQmQs9Uwpa339anSSdgCuLM/LTAkup3AtHEnuevXLNOpSlZZVoxgQVZQfqDCcbE/2GbHE2V0R6hvVtuFnoUsBpcx9/LqhSxlhqitdCmP66PkeKTsDqDBZ/Cx8/NaYoRQiPAaZBqNarmH4LEcH02bSENUDQRs6LyJ2z+lVp1fNXXfQEqU4XQqVeygafhCpeWNNQ/WMY/ZWz0fcIQwcnLTHntLnz12+EPE8F541ek+YUMpjWBvHQv3mC+NjpuF+FsN1oEcIxjCRqO90ruHn8/LKgfDbnWPO+YUXVx9eDoZ92dQe4dfjiTACJmBXekpIJQwMTOCuJM+b/hYVmjMVOMflpSQ0xGL+UUiVRoshvF4GI/p/aywsfkyxV04U4rpAP7M/q3Jda2trVE1zqGVXpdHix/dLmWJPGMZLmewNNq/xylRXuhRm3YZM9Qoq20eOBZhRfg6mFSWUwhY/Xorz8SNdikcpyfCV38bEfGvtk5ZGe9O+LVtTNittVlra2K78DoQIx8oujsdASLdp3xp9/PS6lAGl5s3ChL7mRF4aesKAJvufwUl44e/ceTBmhA8ar5z3hB6leru8OHCNVberGTNi0mJmJY/G1Lo9RGxq3zGj4JC00odHqfEWfGfMWFOGfrtLom5UsR7KYJfJqEIfnMgNVUF6NLGRJ3xrLQYT8vmWBzYkeIVX05uoJJ2UpUzSpn7/189+CYXDjEGvsDoEigZ153Y1YdkhIRlaf6mlPFr2S3ERkh6rX4rEyWBp71yX0t8YREq5Z8+eAVcmROCV2c7Hz8eoS7k9fHPEjFEUA7Y9jed3D50C8xWGqI4ss8HvQCRcfGrV9/2duYHyvI/f82a6FHpg582CiwVicBo+vK5D2hCNvuiGSPWicOWMZt0IvDaMulSfJWu29x4yZcY+DM1qT+dXwsyZtqAHReqacPTri/ZP4Sx+QKkhi6LbcU1es7HH2ppm9benVln0+6bAkxaGPWnlLUTSJJhpQ4gFHZmQnu/vrLwFiep34q9/h/fE3/N/YQkowLD2l7ZJqeNNBmF3Q0NLqf/ZnIwo1XO6lF6b6kKXMmQiKA1xhPGZhaD4Lvx4KXMfP283E0q9eWdGBIxgBtfwdv+8B/nTvZ+ab4tICXotPnVw8NHBq0yxJ/S6VG+9LjVv/XFkqf0gQdo5vjsoBQUAPZzbokegEWuhSw0ZMvSLabBkWiHsfXPBqR4UKYFo9CcL34uGQxKHUk8v+s6MK4yp2Dr4Excp9ExVPfAsiFOgLssvRibcqKUImRaEI1kZkUm5xcUJ/RLqT5wILowLa7r8ZluHDYaaht0l1j+qITg4T2uaSI5LyRKluAhJZuOluqVL6WGqK11KfyN9b995F/P8vrtjAolUu34peKLrG35uD4ePmDGMFHlrhCE/VPnxgy60HSJlDu9WywwotW7BvuR98WvQ8ONRylKX4lHKGjPs65ZIwasNxju9SFlY/HojsiEcG8zt9fp1eP35LDi1u+caftAbRi/euqKMM6I/7eKxKB4sOCMqv5D9O4iUgFHneSXUkjmdVWQk9YusaPOM8fLClFTluX79vDJzG/z6PehDlhmhkGnTzfwYEiXQBGc2yZSN9dWMBXMjSvWgLsXDVFe6lD4bTtc24XPt3iNCKUtdirwnzFCKGn7Deu+FD63lgKZ2W0+NioFICVMtAw5Y3DY2nJitn0yfPn3MwjXGCEltdan1aPhZJwNKIfqdqG3CnW8LmQ3RI3z6938+y8ziRw2/VX3gP0tiZfZxIyHz8Vl4Ch7BUDy7fE10ztp0VCi4v5q6egdipNiiePS+ySggATGTYMWIUggTZ7rmJ7WGfKnrfFPyOKd0sRZAVZeFfWTUNidNSX6uZ1JCel5ksEzwploqxEBpjEkENLGoIOZndmddUYBUBf5F2dwoYmMKlihl0qXe6aaPn940welTNulS+pwsHcM1/NroUjM4t1nePAFdahlQau+w4x+/cP2FTmly2f3FQUf6s9eMt2llxSm1Vy8pQtVe/fYsvCe48VJmuhR5s3K6FOScG1RuIVq9OZTCe7BtQ8IKH8tdToxIvm7qG3Cum7YDbrPwniBdyuOpKWtW+Uhkv8T+9vTGuoXLj+CGtj5Gu98yF70EGyeMoK7ep2H5iYcHvKu3Odtla24vDlp85MhWRmR53U9mi2SC8W/B9NjOZKyTRHmeaKjQUMO6TRaZ0uzMfp5aGYI+B+4KgDBBlu4tXizv1QPdBKqoFn+VJjYnTEM+i0bGRpTi55cyxvHDZvciJPG2CTJSdDxeysjdtLLhEc3V62HRL2UNpVxc9h+av37+rI6/6zE+9tv4MdNPzW2jNpqYcWtOQt5181LMWYR+MO+XIock6peCLsWjVHt1au9Z6FJoxaEdZ2etEwqXnhqLae2uxJfx46W4fqmngFLukuFLrE7GvbBswsL34t87ldxj7n69nDau5nUpjyFAKYnE5w0T54ULolevi3/vvfcWbO772G/yNoXeY5uQDZZNDKn33JVIldn7YgGmSiy0lvzztQh61qDzVuZ5tULohItXjPnuu+S5W5nHvjdxsWfL3btFmXl374aa1TVLlOohXYrTpmzUpfSlsO3RyBcwj9Qiy1G91NVr0qWo4YdItWXn503rmnauO4PhDNbKWL9PmEoyJRJcTRvv8hSFc3kVI4cwXgqCTd4TRpTaO6yNFxy3Obls7mnQqok2j6PTs2VTpQeuXr16aeL9SeM/5H389CgFkdo4Y/uL7Wjoi9ev03fR2D2d3I5dh4SCjSOXBe1ZNrA3Nfww4NhnyYzxesZDXxx6HdzA8dDrPSbDduXOhpMhRgQ4TFN4QvNF9D8hNEVUvRfmHGhzLaFZ+YnmhiTP4Pykfp7VKmbxmC8wjdsfvhizGCJl+TpkSDjtIHntLTgkFe/KK4ZImciIUpa6FKYK0KOU0SRuMI3b9s+hlJXYEybOlmvy5IEY7H5oYNnnPgh5pI/jR7qUqV+Kb/gNGZqGritq9dMcu+2/GLyHr6uP7NRhKB/0LrNk1HaLvQqUGuQxmcZLkS41JMLDzOIHlBrywowdycnJYyy+8KRKPoxv9PTRlo+lbfJWt5EpTEMQf9bkPaFHqY0zznogkp/ll29yerhsX7gY9chqgnbudBJd2wiv81Nps3t79KaGn8Rn4kCMSuP4gh1MPBjT6bJ9+tYnGDPJzjx3cLpCl3Ki4Rz1K6lKd3n53cwSwNPPglQhXhnyipsJuUX9+vlmbUvWTz7wj333YK3QFyhXqnJ/8sPtusZwqVO9EtciHhoradSpLHhaopRRl6IhiN0aL8XrUrzRzx5datMqGNLPTF1HKMXHRKdRveY+fly/1DCP3kNnDfB5HrWgf2fk5uN9ah/vm2RRvlY2LsUcokgnFMfPoEvBe8KkSw3ZP2Pqnj3qPeog/AxLbmpfdZByTHx3RAq5wNTBepEy6FJoaw7fOPBsRwYRzE83djEus3IHdu9CiMAgdFxMjV/NWfzwDuozccbxISRI5rQIA0s6w3m7+fb8BYifqa3xLKiCmQAjmLJzE8KbsGpByvD0CngvtbbknOjnFzIxTT/3wB++uW8RgRY4tyu8imwcnHxZJGF1I6CuMb25sba21beRwmyaXnZGlLLUpUwoZRsotT/LTl2KmmACQa+pMZhhTGbmPWHm48dZ/Dx6vxgzwOchNOqje/bg2xEpB5xK3nZvA2gb07lj+oEx30G1iaHxUq6WPn68LoXRejPJPUk/5BboKMPGw4f9cb5PcnxfvMi7Uc9FQk6kEHtCr0utIV2KUMplL6ZSbU8R40atO7BtwwZ5DwxJxOx1jBMqwarZERF6XWrJQMw7udeMbcSwcYteX7zh3pOMRGa1qtq5E3ElopISokqpWktLgxOwCo3JLJHElEhImbiV3GP7eQZ/off2+9kX0/dI3NyoNSXXaFSYuUnd0s+vJlRGCdlCAVHh6UXhwQ3h+Wq6wnSRJUr1mC7FtfvsQSm6CRHLQKRQfZ2NAZzNffz4hl9vNPwwuZnzG8ljrozpmJKnl0Wf2bfv8L7Dd3ZjWEMn5CRVbVP1HcNHm6UISS7U8DPpUvDdmQnbNqS4HckgUtR86DR966ydnEbHjx80DBY/H97iByO6XqTmzF906NCi2VhY0sA1V9DU3LyV7VRFtM7O+t6dI5+OICM6h1IfD/I4PtmC48Cy6Wjv3tlt/eKfzl5VXLhXrpb6qATi8gd+vlpvar5x+cMyLikfHs6JXLBbjDeMNIjUH8ryGoLzdt0tjsqurdNeLI/VFWHAYkKDPgJT17cnFYdWklpkYe7DZUaUstSluh17wgyurMbx6zSnepECSo2koGPw8ePHS/E+fiaUQu+JbF7ZBESgm9zJd/J8RMmbf2jskS6ji6eK7j0iXep5ipDEmydMFj8PEil02bi7I0K6Jbm9nPx6XxEN/bKbnOAWNHno+LLzw9uh1PGBafEEnO0Jwwd3zBogEF6zm531CyBScEgikXKbOPD4EI+ha9rwvHJlzKlTR6xf/NPZy0pLb6akZHMzjspL8pKSWjFeiuFkCouLCVVwrUhsqMF4wYbwP//NIFL/GFjky42ZSknJzExPr69PfwBtC+MR6zQ23pq8PL+xsTE/JNDSdcMSpYy6FDX8HkuXIm3KXpTCEBegFCozUOoFiJTLHAtPdL1I8Sj1cN6aFylCPr5WPx4uQxDIFXaHF9cd6BLJU0XyR1MfvipxduVQijzRzXQpEinJgI3WaMl3kzZeXX71mI3PwOw0J+G9madOTSK3WQNK6Rt+Tx+fsQ9OQWiFoqobiWbWdZW8Onwf9WJ3Q4TNWJtWd44cx3X1cij1wpBBZ9EAMHB1Q6sIvb8+0+J7alixiW/PrlE0FxWmo/KNhYMSxtNX+XplYmQvJ1LglO3pj1WGzA6M8N4+wzRuP/vDwomF5/xLQmOrdBkhjdn5+Xm+hGR+mfl8oMCuMyluhDtSg29RmGV/oRGlLHWpnkGpjuL4dZBblt00tezgPNA+A0qZj5fiG35PDY3BHOlAqTWIBePREaGDFnO3UzftiwuDuvQBEGJi3X1BSuVRJWJPtLX4DRo6Y6a789w1+rCsln8TDq2fP3/CnW5EQGGZbffky3cApZZgvBR19UKk5sE80RujxHz03kgWf7hp2fCp8LXq1WMiNXvUqPGz4yG3QKkXBg2Cl9WrNK0DkYz8EF0lPtNOBXXwuH4yuwFIrEqJqd12BcACx0rVtSlekaFo7ZGGowhOx8gpEG2xwktrDOaJb9/FYFwR7ZRKVUSVCP3il6MrlRuEsasbZDWY+1ce2hLWGUqZdCl9tNlujOo12fzsRSmI1LsLuZlMx67e79GhxY90KZlkXtmL5tapjtY9hi480GXDTwSUWpcM1WtfWvt+qSFknugzYgZ1D3H9Q4Yl/b94/YXjL8zezHRV+laPiwRBY+eSeYK8J7iuXs48AZRC5HJMw0DIxH8MjG07YwAAIABJREFUYOU2fF8aGn49JVJX46e//nraFaTeZwkCGw6akrYHA6c5zgaOfaZ996TjZVotG/t3SsLgSdukIDGSlLckIK4LQ9qVuiXXaAPE5tZ1BpFacKANj3O+fr7FiLDUZnfHm6xKA6rIjeoApSx1qZcet18KOlU3dCmBavRufLbOnbAfDrAd61KocUApvb25I6TCfsDUixg7BYdJgeBaJ2Ul2nYbXU/Jj8bEjGrXL/UUUKqP84iB4xA1oveQNg6FkGSP3rNnMsQBo9ntIxYidd6dUMpFj1KcSMFo7w5AkngfPXpUefQo/miNJ599McuXbtum2raJ7Y5RpE3+mKWqTds2x6NFiX6pFzzQ8AuiWATEGYw5ku08dQAMty3dxvSUBtcmEz23KWv1Ssj3BlAJGGcE+4tMxCxvAn/fAqNuhJAaS3V/+wdpU38ou9/2cZUGN0osvfU6yxqulmuj8qPym9ObLFP6SelShltgVkw+Tj7lbfulyMePt/hxKIXACeNe2N+pt98LL0xZf/pAEM1920toSN7KP8O9cOSa7+aT9wQ/qlfv48dZ/PqMGDgMsY1o+FQ7GjRyairMfuTeZCXlTnaJREfWnVeIIVJDLFFqqg+QYvk+RABb8B0tjHTqu7QZCzgTwrJ78KPtJG1bD4mE704HIvmgX8qIUgPGGBku+G5HGc9wetuXuq0cfsTznAPDPYso7AS6YTFRTtKuSoFKm3TT2C5Df3Bc+p+vfPPFF99Ov2qc58qQQZW3rUoUXQEemtja2to6XWAbYOtAlzL1S3XTe4JDKTt1Kf29OQmY2/P3U4QTQxy/thY/Nx6lMDbwhUMTJk+YMB+Ljn4TyiadOhW/4Ao0KsuXiaEkqXj4TmG0qqdPNos9wfdLkcWPUAoiZZ2eHjl1EwYX9rLbKZ0VBa2b+cYb5zmRMupSLoRSElefJdGzF+lp+6JF/Bfbk7dP3r5o++z4k2b5f4xVEfNuPJqYEKk5g3iUksgmpg3U8wNXrG0HHZqwpCck+DFyatOlmIUqPYOfcEqZ7+lV46/MT9IxhktZaWhOv6Jzq2buO43ZvttUB9psu89woZV/aGcqZWlAoRIYaHmZJUoZdalXHs8TnfSpblj8+Jw7iZgVsPih/vIx0Y3jpTgfP0IpGv8wr+x6hIfL/tVTu3D3O03HVyXvuCpI7bBOCFnegnGNoenuOR+/NhY/TqT2Xh8/heaUsaRRUwaeQlznFfZ7C4lEiyfFYFT6jLYotQ9WT58l62Cq4AaBmXntkq8SDJm9x8fvFvWMlYLZHD8AfiHz4JDE61ISycS0ReOehlsURzT5lEvE01MmLLFSr35qu1ipe9MDv5xqiAfLyhN3+XmGF9WfM+ZSWoFB8/WFTipVKjzR24oUd5Hx3C5WGBg+MnJge2/WARUtTjailKUu1TMWPzt8/MwzJZLenn99GAgo5WMa1Wuy+PlAcyddKsLletm07xXu33dC1JsED6cdV4Udi5RhghsRc2VyxLA5EWj4mfqlDLrUMJeIRWuirdKOsZOiy1a1KVnzO7K+DqvIkmnzpt0pG/9Ue13Kbcm6oegjs6Snefc7XqR6xkjR61frkvclH56+BiLF6VIQqVmYeNSShuinArJ+Iz+dvVCj4pq9HlSpORAqvZmEAGQBXB8VkESaGAkXivRzaJMgfPjjZRpBAmtzI6NCWpuLdObx2ZGqJUr9i/ul+LsUiaQrYkain3byoRnLZD4HD33MNfyMPn7UecLpUhiTcb1slYz8ZDunhzKIVNfjfDFj9fSR6DsG37beE0CpOb0jFo2dWPj552+YfT/X04Bla3a2wX9bHhnaipidJ2b8oDa6FAzYrwKl2omUoZ4PmRJv92wHHeSHXXz/0saNl+auhnmCs/hJXCfOWmRgZPj3ONudOSA7YPlEd7OMUufrV1DByZS8oqGf1y1Ovhi0+prJJymzomf4NybUiaWsVJzve9nyZWpEqZ9AvxR/qyJWxCzmIgntHBGzTGKOUjS4g3z8jLoUL1KdyxOOPpTdib5qg/FA6HR1xUGwfrTGDKWoX4qz+LlEHFqg/J7vtTFbovpLXIefHwiRsvNZsddggkLQ3RgjSlG/FK9LSWSEUpxLOBeE1tIoMmT867sf8zVryKuQCzHT64AJpdyMKKXnPARxb/9tRAovNlVlcVJmdhaeByOI7efl5RsioT5g95ue/TAJN+dMYbj77v9La9IJ/lhB4oPOZ0HsiTh++o6p7upSGJEhgvEMZmnR1uhlrm5m46WMFj+DLgWRmuYNR9YuCCJlC0rhaXCjCkWrykikzC1+PEpNXuBNPvBm8oRV8lFyf/NgN1AKk2kIIVIH0sa365cyoRQaotxsdYZoZ9z/uO0LDuwm2mavGLerQ9e4ohYcWDMHmaB+KT1K7d07zozlsFETdhK/vrZM3tqOx4+6g3p1JY0pXrsCyAFW5xcc7OeZn6ViparKjAfhN/p5ZRgtgI+TL02BbyHkVCoIeHAXFgozMqLUT0iXQvZ4PeFY9DKZNZTCJEm8LmUrSkkgUjagFBhz736DSHGjeg0WvzkeEYsWeEOiBqPPxtBtg74b+FwcVXqv/OJ839H42F/lhJ/HLBr64naTJzpn8ZNIOJTaizlLYia0o0OrY8YuwFyh6273SPWAMn9g9RwPD16XcuZQymPY5AnmnNfsmLQAE4lc6o7bvVl9+zFW8ZpRVYQn1MN9VrHLM0xyscUvNwPOSgJVVWZRil+b4LDdzBFzK4Efd1jlW250fuLS+gnqUqZ7PLYDImVNl+LcZl+ELnW8bJUtKEUi1bUuZWSM2bk5lOJEiuuXAkqN6z1u8gLl8w+dJy5Yh5lrJuHDLxaOnbRuXdrAWQsWLlw4aYUxEZtXDiyI3hEdMxCxJ/jBHcdnoF+K16U8nnYZv2OaZWRd2tq4ZN48LA6mTe2BoR5cRg+shkFovBlKeQybcMbEeN6SeUsS5y05v2Ma986x+d7+ZSdKlVW5CQWXC3N8/TE4MdszIbJEI5CF18dVaqstnR26l0WM0q95oM1SnqvNzcPMpeaJGFHqJ6NLmXInaotS1PAjHz89SqHf9XpZicHPs5PG30PbUYq404T3w13d3Pl+KYPFbw4sfkCph24b1xxCXw3fY0O9Nui6mbxo1HyaOHHywKmm7Nu4JtqGgMlH3m3TL6XXpZ72GL9gMOaEghu8OSncKdyez551Z3oIpZwGpK2ftb6MvCeo4bfdJcJjzsjzb7q7++BD1MfHzWf4m58vmPaTH+fLFTsiJamqi7weNNbXwMMP9u6iEzlaRWVKHoaAWGKKjU+p/Wmsf0t9S0NLengiGJgTh1KiEWm/eo6bUd6oS/0rfPzM88Wtk0g5H5xwvL3FT98vZU/Dz2aUcoIutYxiGK2kaLMuBpQii98CJYbgz1sz1ANVDj+e+H+uv2jOyKkCTI5h35vcSYDoaKcn0HipeTQE0QylqI9s0h7MP/88lDbTu+MhkeR5t6x1ZzaJoDtcs9Nto11Bw7nmwPLlB+ZG76H5USambUdX1JwJc4ejA/D55+GhJHn4PMZcSoa/Mek0p26ywp+6dxJquUpdl+nnd8sdKjKrKW30TKhp8IrFfksBsFIWNu5ilCWxsdX+MkuM4sZLCZlemLnDUpf61/j4tbkXEd/ww8SiNBmOs2m8lJuhX8oekbJNl0IWnESn1499771TC9atJpEyWvw8xhFKubotWUMTrxHhKP3oD0u0Q4cdmkoPsBsPDSLl48o3/Mx1KReP8ZOU5MoqIaEyEBzVOV/1AevOqERkUXnsLirKsZPgUjSPUmmEUh+PXDkcyE+jyDh2CPhBIsXFE4T3lajNw/opbiq0nv2KmsT0PFhxSK6fX8JluNIyPZtVKjoLmrtwsUiYakCpn0S/lCl/x6LPTHxjRBkvUvo4fibviSemS7F90RQDnccsjRYoBV0KnkImh11OlMwWHsNGTu1m7YZIIVIzuc1GkCe60eKHht8emOllMu/B3vTlftykp9j4fMeZpUtVS1WqHtCoqIfsvl6kZm1H/F1CKWpMD9azHDzY23Xi2FUYCAGWUrab92l6uE9+DRO75WAKxFZvyBFM61kNJ040BLbpl32cXHCi2v79OTdtKuZljqf5pV7asnCMIY7fv9LHz3SXW6efmn5l7Ei+q9cMpeBVShY/NL64rt5OtCj+kH26lCgV1YVew8ujyS3KYPGDeYJDKRKpp1xgYT4+5wXu9wL+uc/Hx6/PfrT4SNCR3e3eXKZ7srp2TXB6zZgRy0Ykt+mXwlxX4yeRSPVfckU/0NdsvO93C8pmXUHA3OnTD3ZjwJZlRtD2RCSyWXt83Nzc3pi1CEV7nEMpmetBI+PvvvtuzSSO3/SDS+29RUt2P8YWKrs6PT0sLyEH5j5kV77LqyUh5Wbpk+a9Yv6s6OhZMbP0U7YZdKl/pY+f6ZaXLg46EDS3Q12K856wqV/KTosfnwPR8uiPe2MkOY2Xon4pMqJzKFWG6UHPzl49cvZI+o4cuZoWtFy9ek0ZjIHRdg9JdBJtJGe/6G8Hno0w16Xg+c6jlPOqgSMt4kLoNxAsYvKhRavPpJoKrdtrQtGlWRMHDBigngZdygMWv7nkldVn5gxzzpPB79Ch1Yd7wmrW7ZzafGFAQrMqa5dfUq0zbBLK+kz/uwl+eSWYauNJvhDki4/iM3MWdCk9Sg1/zLl6jdEn7B8v1bao0OsrTN04nzdPAKUMFj9XXpd6QihlyIVo+frj0Jme0nui8yjl5tqHUKr3+LJl+rm4adrtlfjMxYdbmbnmsL3Ku5NQvnjw4sGD7480ek9w/VJGlHKdtnq/3hzytN4qgj++zdl7yKjDj41SwGWR6BJmlEfv09g128cZUEriM3PGizxnjjHNZOISMfnMv4NIsYISvwaWkVVFJhRgMHucV4NKXNLglcTNm03+FE+GGEzw6SQYsf5Xrxgtfo89vxTvPtFd7wmz+4QWzIg2zjfqUpxDEsWe4Hz84DZLRvTBXbb7JFzDz2aLnzEDy6NpyrZhcEjCqF7y8SNdCqNwy2DxGxUzEQqOFXKVnSs7bK9pG1ERqJfZ6cAEKxY/JRp+JFK9n+79NCiCFk9jsoWn9aNNevcedZgxZrr7K6xIPgBmv+UHTpMu5XJ8JKdLQaT29zYwxiBMTALmAZFa2n0+P96V0jqvDEiONCA/KaW1Ii9JixgU6rrmhOY6b+DUkxIpESLlOwnurP/VSxxKKfqKFT2HUt0bL2Uqcppj2mljzAseHpMtLH6IdaL3nkBXr8m23KFs2adLGfkvX38IvruTZ+t9/PQWP06X8hiV9gbGf4AemnNFICWZW0DZGb6Gi0TGpLpYYRFrkPT95SaU4nz8jCjlPm0gNUKfdiG56o1/Tqj0KOXRIyglcGIRMpMyungdLH4uw3iRGj5zxgsYz8wzJq4YKR0xed+/hUiJ8zyruZJX1Pn6PUhqDqAWn7Qy8kRCVCFE6sk1/5ycUu/Mf/Sbd3/zyawxux9jrl6xiR5rvBRXCMaF6PT8KS++cGiBzGjxiwmy8ER/At4TPHPh1hV3QHMfzVjG6VJcvxSNDcSwEo/xaRN9SJhorhpLGg6R4qJdwIaWarwN21YOjDz74ZCPTRY/GBzPTiKUclu1GhXbOj09ZNQ+XoZtY9LFWaxo8bpFkOU5E8iILoMu1W5KoH8PlIJ1ormokrtbVlO5y+tETSWnRDHK2twEXyvzZndRMHYcxvvx/vTDoEezxgCluqlLmeSJ1mgs8OPrUnQTouWPHr3+aP0pQ7/UUzQE8UfRpaDIATmcRFfXbOY80c1Rqvf4b99ATZccnVaxymLS+YPTpo1YE79xyX0MmFjMsHY8BpzqdGD1/FHjJyMiE5JesmMojTDmLX4kUtYFysXl6SHze6Thp88r67R4x/Zx5D1BDT8SKepKsKB/F5Eqyczz5u4KfVHqzH4JzVUYCg9sEidG1XsG07T09j0f289mey29Nxp0JH5MX5KEzWXv2x3Hz1KiXgZM9YAuRbcgVCFn96bGG0SqNxySMJMZjeqFLvVkfPz4okMX6jVqjy1fvdlZP17KaPFzGR/DidSlHWVtCFNwYwbpspgJZWlz7bY0H5m0Y+zYHSYfP+gtvMWvc5EapW9p2v7IOzkTKBU9e/L8UZPXGETqhTYi9W/T8ItNaOTDSeDdluiZW+DlqXWGGEGQNKH1JzwRpeJJERfODEMdt06ngfLd0aXe7H9wqhlt3rh4626Fs+LKpN0YooFW0DVSFFA9WSzsvAsn6FMi4eb3ZP1h8Rs4zOPpFzFzB++Jzln8noCPnz6H8Evgsr18oBlK6S1+mLKNRMp5yaxFbafKGUoTcGNxdvIduxUO9BosXryxbKoz4GHJWEIpNPyoX8pHj1J79cPXzcbO742IGHVYgzh0KpXUXkujtWfhxN5bMeLdO+9OncU1/KBLEUohDGkEzxz/4ybvuydVbVJtYoSp9KJ/Yi97a/mzY19dQizfUGAF8qikOvXFoqSCUA10KEQZ8S9O8QyOk/OZhxlMnyzUdzsYdHGqSLh7OnX1irsxV++bu+NnDFw9m//MHjjwk7evvr38wNrXFz6zYcPSTTTIjWbgJOXXCSqw7Wq7PstCweZ4Eine4meOUnZ09Yq667azfA03BJGz+MEhibf48bqU65JZZ4cgpK3ZF/Nz0xTdcE+ab79IcfcbVIZwLtTwOzuI+qWMuhQGyfe+Pn7UdvLPtaD5I8eS0nfnzkZ731fWqgTeYIh8wwpGx4/QN/w4lDo+ysh5+/bZk+7AQeDOCkyWw0fJ6cF6aC1P3dvH5ifoXVqhVhXlVAqkFTf8cqvhoITbE3hX1Z+or1IQaiFeLe9Li3sXCXrOMUQkfAiRoobfsrL3TbEnjN1MnYRKevnN3dMPmQasDR14Z+vgwUcX73l94dqTrz379nNb3ll7cvSGpUuZa2hJUfFAtuwhEinXvn04kSJdSu/jx3mi22rxW95dkXLSN/zGcZ7osEagX2qQvuHns2TWFMwnA4IMcQQbAvnT7oWl+XFE6nlYQYBScLUzQymM8T0bM3VEO7ozYsT52+dvz40eY0+hdnQujKzc+M+TvEi58yjlMT7msJHx5l1J//zzn7+5MnajtAc6xDrKyGPvl+/KVPKyzqJTKhtR/aRqbaZnTQDJFMOqzhUneDb4w0NJWQdb4GOza58Ah1LD33zzzeGbJ7z/nF2e6C+/rHh9EfoseBqyf+AIseJl8XAxwrk4Xdtw8pln1z7zGugZno69dvLkPYDXNbQ1AVvUH4PxrZwVGS89DsTaIJlQtHn93Ntzz1/BdM0mXcoOHz/ZiFm/evaktBdgHSwxURd8aOmFZBMtX71sOPVLGc0T0OL0Fj84bZ+lrs+94yKe1rfF9CHa4X0AkaKbonuxAz2cREApuPR5E0qRLmWOUhg9NYCGdZAfK5bclzbJjajPnknxuB+wondw90nEXqOH4MSLFLp61xBK4YY3gjM57iJee0h9SkJCim9mc/DdbN3FUP9SmdwwZILj/VgZ6H7W21ypbs7lXGZRIvJsrwrCI4EmLtzzgU5NgZ4RkSW2BtORJkqrPDG5B6rEtqBLO+8HaagI2yTVdrvN4Q42nUQnp0/fs2fxHvVUc5TqBJxMAPay8/TJ+r58mIaurxnR9+WXxeI+0xeO1jODHwSzdMOG0SdPvvbMs0fWrl379ttvP/va6HvblkoZTPKtJ2oXUo3AcAdOwgwXp4pWro/esX5HzGozXQodrtTVO82WfinZiF8f/91Xv7p0EgEy+SCWcGmzNbTkxDVT9wRBjRtC46VcffTeE5zFzw0ohfaYBwWitaQhvcfNX6ZBi7dXr1S7RArxMicsWLZ52bLktLa6FBiNj/4cjcLnn+e/zxNxIz3wL1EvjOfK7fEkylg7dsevHO7q+lCBfikyT4xPm0chcMFZ8rxsYlx5RmtwUYKX3wm4d6fntuzKr6so9EZ4E8PlyEQP5cOQot3/rL9vjUY/g0dhpK9SLyfq2oSkXVlIjYQqq9jLqzk0uF8uQrKw207Hp32bFr9zE4bLmHHj78l4Z2ZHulpNFY4+HP0d+UimxXANPztm7njZPd5cpAZyIoWZO8aONuRERDeAgUFsKrNp6dINoyFcJwm4noV4rV175Nljozds29QLYSdEeK3jXLRqjRlGd/RuzjV88+xxPErRqN7VvPfEQRrO0wU9fDhi1ke/+92vf/e7j/7jN/fXnlyKtCHkRgadrxyYteO7+OgZvEgZdSnO4ue6JBoNP5c5ow7NhucbTQtl9h0YTdNfTZ8aZNcU2ULB7qmf0IdEyujjx1n8eJHqg95lAot2RCiFdxNV5s5vyLajJ+M37xkQNGDPGd6IDpGCoZUjsHd3HazMOv9teWisNv9ueE6Kp2dCUnpuc01ea0Z5RZZE0yM5sC2fHZ4l1WZmMDzgqOqSGvUBImBCj2vxulHrzsuUd3WNl299vxOtUtHWM9/+4Q8/+8Mfvp25WGjenmW6fzPs0qCJl4gOz+KM6PyM8rahlDtQCnWLJz1KKcxQCgHDOdUP90+IBIxAEwxz8XHItfXYsWeOPfvskWefXfssGoWj72H2wqWwahgKy4nlq79o52wa1UsWP8mrZESHJ/oEWy1+9197+1e/+ehDTq6++tU7y4/1XWr+KjLwav8vurccxXJmNa9LkUMSp0txFj9el3LZP3DSTBg895l9sUG7Zs6cnnaJN4u1T9nqHkQ+69t39O6+965yFj99vxRn8dOLlMwbvq0Dstp+syaOPbV768OHmI+iJ4gdPeZUMl4Jj3YYRcp18B6Oa9aArM/BXz3v1H0EsD/qrSytaNJlFzfkFKUnJSWl1D+IDG5t1DYFVmYpnTWPUSEf8zbkN1P46BAwRRSloJuXSw/1UHAuO93zFpQojgobcx+c6JceJ5/7BT8DwR++2Cw1VwpYQWGYaW4dOzMlovNFwrnr37fTE/1lEimDRLlcN6LUpN3GHECQjOsQK85EQc0841520+iTr22lZiE1DNc+++wzr8GmsUkoSEWVxJmpqRApDqWCMAsi5pcyDO7ouuVHEZKWX7uGAKTfv73lq49+9+tf//p3H3214u1j91hkCwILgoyzpgyarzlRN8BOg0iRxc9Ml4J5Yq/LCwOXvfny8OHmXwxu7zNcMXz4mxujLzF22Rr1BSI6MmkojWpEvxSaemYopXi4ZMwVKxT/Xdm3EIFkssKZZ7+b607bJu48jW7s09MxpwceLaGUcln8le+uxBNzWllQtoBweAU/WovVeJdeDtNl5xXkIiBlvxMJSUUFwfm6sMtZMj1AtM1JB+Xd5jQWDwbUZq8Nm94tvoU4jS7192qW66/gEpJW15zIQb8vjrFsaCZmP+zXcn6sfk6Pn/1h7GLzysoKYj1vVkD7YrqRCY6rUHhn/fvPYfiUXSiFhl9blIL3hFGXsqEE6JRrvdAq3IYZaalluPUY1y58e+2zxwi6NiwV7lw9bAgfewINP5q5w9bxUs8jnAs9Fwxi37T7+yNvb/mNvh341W8uPTN6E5Q5OirsKJfA1J0Dhz1N46WM/VL6hh9EKgIoNRM9Saj4hi/W3LAB6jMt+tI1u0TKkImgSZz3xBRuCKIZSimcD8bMPzv+LMJI09LwGX8Wa2fPjpofJErt8EYMadvwzwo3bUpdmrqJWYY5PXiR6r8nfoKRH3XHEcPxsw+bdb8xGoUyq7IktLwuO685NxOghfZgTk1ecV3c5VJv9+40CKHz0sOxIcttTkn0bFFgFy7VZHhFmXkyIzVNaXZm0s0AuiKggJvFN+FvepDCrB5fnO8jV6lMEhR2wq8+v7QbWdDnSMihlH2zIHaEUgtNKKVPvdM/ggy8H/CH0wjBhEvvnTz5DBkzCLeO/eoQhvpNSTtABi/4g8MOZWMcPxovxT8VCBWIlX5/hMQKcPXrD7/61fIj9yBWHT82TqTGPc2Fc+H7pQwWP/RL8SJFQ4uskKzPtB3dFSk0/NC/dXbSUZJU6uo1NPwOThjauzf1fj1l9hnkMWgIRvV/jFkSe0SknNAwx8MQiu4YRUqyJ/4QJpYkvliiL26Qx1ODhs1ONgz0sChAVuxdGgfMas5N8QIK+CWk5OS11lVXBCgVhqapbXUUtYGaEbxS1Gn1aXMw9EQDJ0cYKVWTEmd+kFJT1dWfIAu6oKneywtmln5JxilHf/bXv2WH1GnDmuJCA0v8K0uVOgjdiQbqF+6emsoSSr30ykt2oZTz9EUwe3Hk0fv6wLmw+MGybhYT3dyCZ353nI1Kf5BCRcKifo2foj01FbtRniwhF3Sue6Pv3X/v9dcf/W79/auXri5fMYFQCg5JEjdnzNbXKXGe6Hgs9FxA1ASEXN37/sja+7/66ncc/cdvtizfStqVSJ87c+gXsezO2R9HzDm04CjfL4XxUpzFD8GEgFK9X1jNo1S7TLjK3LuNUgfGHhqPHt1DJu8Jg3kCIsXHRucLnC91F8zbjVH9H88/wNK0P4bbsChruzaovxfxcEmkiANZ/PZ8d2gY+gx4iuAGlwwaNtAoUvrkqTHFSxejksvUhZUVcdqQ1obmXNK0ktJ9HzTczddWA7TEBlnsMF90F8Ldp0ds3nlgk9Be7K3qF8UlzAgqknYZp23DLj534spiTPCrFsgSLwfGxWozvjCJVLqXpyfllRYpmen1uTX0UkgK7u6AYKdec+d/8pt3f/WrT2LeeFPRlx/81MXy5f5XRr5opPEDRyAA68tknsBs7mSWgE82CLdCEAGCsNBPT7RKNw/7NiGU3qaOLVqjPyGcVwm97i1efOzYinXL9wwYcACTe6BP9fj8ucuXX726/EDQYMQM4gjvdGhXiOeD8UyQNdK0eJHiypcWyIcpK6Re/Qb6FewWH330m/cvreX1K2oGQsL5a5DvFQNhzRu4QEkixelShoYfj1KbO0ApiaK7KCU6eZ7MG1Ng0Je4AAAgAElEQVTjuYafGUoNl0CkqCmm71y2+Bs0bD4MjBAqe+ufsXDarBBKfczhY9o8CYkUP/IRTF329n5qyCCPcQMfaQSiXlSibS4132Q03oWJceW6/JvBNQ98k/wSkupzChruZtddjPPPMmsOGh2DNBXnMIgMt7Lp/vT/AZ2a2vWUy+YM8ZSz/epoD/Kl86ywljmZriWpJsyZu4wVjfjCMDH2z/4WpdXqdLUh2VFRxXdv7cqLzCFtyyuvux3C15jbZTH4wPXzDTmNn+r687K4/5WBq9foafWECe9evQqPpKuv/+7tZ0HUw8svnzn2Gn1ee+2k4QNbOkdkVB/Nf8iDV08b7uFDhCVpWBuWbkg9vXA5RTaZtvrFIS4RLxxaMeDq/fd/9f79+0CuAwOCgo4eHYy54THqgkSKm4GAhIoafpYlzpc2CTn9lh7Rmy1+/buv3jnw2gYpS/Bo0K7wAjhw5syZwzuAUvyoXr2PH2fxA0oNnNmxSHVTlxKJ0KkFm+jOeKOPH4dSbwx3JZGK+PiF/dbo7IT7QUFHjkit3G37+7dhj0i0bOAo0poO8SI1ByaTiHH6aGtDR10fdnzgow2qbdvgXtgpS8NBRiX2rixvDW5BZ/GJEyf6+XllFkTpYi8HqBUaU6YRgjk4vBKvBnbbpR3ffP3zn//2L1+M2W3fa0J817OJu0HWu8EXQdGtkbLhREIdL1OCad8azRPfXHUyvkxZRirVouHnd6POudO3hrX09fuE7JHTMPXsXPVu9BtiG+fqffnlJefPH9R/zh/ceenIgSMIG/H6wiOvHeNp62tbSZBewx+3irUu6JnXuA/vcfHaM8doBbte27nw/nLQismItRLxwvzbAKmrly69c/+d+/e33Ofp0qX799/fuQVSdvUAj10kUtaeCAdXPHbeO7b2FR6v0H311W/uv31sKaMvEowt7rV006bRycZRvQZdimv4YZarzlBqY7fME1wnAydShvFSel1q+PMkUvtHrn/PGp2adHjq1EeYfUrUySO245CT6NLmmZunbt58KhooFX9omMfx7RMmc8E2Do382z//Ccekv33z3ZV9y7tI06Lnl1W5Z/lXVFfB8p5X8KDe08szvf4GQCu/tirUX8mBlrrgxAMEYBYs3/E/v/3tz0F//GYzb1nsgpH+MCsobUGgWSKVNuUufGX1Byz/sjKKUgqqSUkSbE1GrxRH/7hyEoMQgG/8uUC5fgmRuoDu9wdQc4uzDaxdZytKiRV94MhkIrFc/GZfcV+xucWPWm6GNhe1Bcl9AcT2MpBTr2ubuFYhtRFhmaMPEf6lvaSb4PdMOtW2TfeBUghFvmoCpr/22D/h4J49R+HycfToniAQwhNBlA8cWH7/9PsQsFfeubR8j77hZ02iqNwAUjSFBqEVFvJjb7//FelXaAf+5lf31x4ZzSDnaLeyIoF83yklJgzEEMSn9D5+cJvldKkngFICyBQcp/Qo5TZNb57YgcHEB2OGImxTMkXvbE/Y+8aItMXWaxBfR+xZOrFU7JuWbpq7Y55E+d3IOegKPEX9bfjO/CayqD7Jy8/P659/boUwZIkZesR88vQHOTLnZdgw/GPYukqsDLisbYzKq2n2TU9KgBGjvuBuVK02Vuvbr1/CzUr5nbI/chL185//Zd1W88S6WEfcifoGiCTIOzKluqNmKatJzEuqDylUySpDW//BydQf/jD2tMiURSTAhNVosxgurcdaCEUQKYz06EKLMh6GA5K+iWjcZe+M8nx+ScGCSHPaFe0xrtDzEVFkrDPLlm3enLzmOmfxW2XyniAtCo09mkrDzc3Zx1X2/OCjBw4E6UWqk9gThFVInN6kJNTspntr39F3X8GN6e2tG1jIv4i9d/iUt6sbN6oXDT8a1Uue6JzFrzOU6qbFjy8NiJSyj5vbcINIRX/ONfwGXZ+x7GUfVzdX2OqNH2xCeXR1E0+L2WpRJ/ikHm+5Yse85zmUul42t7/C2blPH4W7u2thSVj2rpZ0v34n4JfUXJwRd85bY6x8KNMOwKFtVlipxr30clNtcUMR5KrfiRN+njkpsLIVlV/5H4IotPx+/v++ucQNlm57rfVtVhDmWcsbzis9ixC22fppmC5H3FTv19K4KzchofW9L/7whz98sfDAUjKTGYllFJijoKMEjKd1vWIUKYOkdPVvlCTDiQrF48aeaJ9LtHEPPEqmT/zq6xjz2sngDvKeIXsFWn52xJ4g4YJQQbv6fvmW941miy2vHNi6QX5m7JKJAZhblyIkmVv89q/ueV2Kv3fRtZ2nlkx8Y+LyEbC7kS614w3ePLEfIsXZYegW25BiVYw9L/T2pWxtz20epYYBpVaSdgrCRED9+39/VL0kMOPPeTfDm31TPDNzW8gnKbRSLbe1DnK1lTuZlcq9KwNjCbTCH7RgDtB+/VL+8UdOnmjxzc5eZhXdWh5N+yDKGXpVShDml2fWKWU6h9bII116FyodtCXfN4LuHH50+M6BXtR9YDqP3gyMje8G01VW1oSiA+smvmyUk+6suE83856wwqIbu+CxLr3X997u0fcuxcCHwaWjcC7wIiWDH8kTR9ClOkEpi4xwQsWhFQDr+2c4dwvejek3v5swaUH8lbFfcA2/ibBIYAjilN570dX7pFBKxJxeF0/+CpMGHrfQpYBS/0X397B9kCZJ/2kxx3i4tccF3qIQ2m043V4HlILFD2+xlYNRrg/JCvRQNlj2PGZ1vT///gYZEAu+tDm+SZ6e6UU1xY3auET0QTE2iJb+FOOZwCwdVXKv+hpOpAimSKRSzSp6uxxa7MBsbVH1auyCu3leCm+msDjBsEFAGstJb79dDHtt6b1tcO8jwxQaRyKOHUkUTjJmznCl/f+scO36OwdX7LTte5Bop9lnxUF8FsKIbj9nW65gBQdm8d4THXuimzqr7EApMCeZAvG6FWcQvLeW8Ir6hX+96HefPIKPH2eekMm+vz8KXURPxOLHlwImhDy9kz4zJ/AiBV3KlXQpiJSP68P+bxw8b7ILGexDB/eVrZh3euPp04uFjM2VsItSd1qxY5qbMh5TkQOlJM8/lEyEMcr4PVy2D+w23r+6VCRVB+qKa4rgk3TiRFJLXm3YZbW7sf+JKqZtlRNGtoScxtJfJnMNP6hTv/3tuo3mzqyd5xceEw0PGLBiBIGeeYrOTobdvtHLEwJcTLEo3sySw4kHSj5dwolRD8iSnr1QtPjRI4rxQoFeul4+winmH+6q1z/p++REav6LeG1fL7PJE71b0Wb1BUHSBbg6cvX+b7huYXjeTtk/B3H8oMf4vPvrX8+J6N05SnXP4sdzF/YSOqUyQib16nwLlCJd6r8Qa2Vl2norNGvC+oXr161ff1/QkyKFrl6y+AGlHvaHbz/POZpnP2H++oXrzq6P303Zljpn+VdT726Ob0pSehGcaEPKQxPVYs5rAtXcFqHS1QfrKsVO26Z+A4MfZ6D4yzdHbH8/wGOiOZzhwCXDM6zDdh/lFnpctqcv2n6ZrSVSQUU4+Vn0EqnUlV9mvUzHe46cRKrdu0/u3mrjh2adNCO6bPfurfeYnsuQRUqs03LMVEMx0TtGKX2bD3/2oZQFI9rgEIvMFtfuHXlF78b0619/svPqHtf/AHDthxH9SelSLKy5qUJhqtPVmI+pdxe6FFAKRnSI1MsPZT7LJhyPGDbOkiLGjYsYNwx7F+3kwru3u59u7bi9Y4n46JWRpEuNwIitwcvWnJ1j4ou+KrAcuWMryYv+vc7KlZVNGbci0+FE6+fpW1Csqz4n0djIvPQyoAX97ae/MNgnvnndzJew61TiMlu5kyQNmdQA7ISYiykJSf1O1ET2y62S5PcLlgsFvV7+03///v/7+9dunVzWjUMiGvf6OET2GdvfK/blsJfoQMyiUaPGx0x44ihFT9ZIMO5/f58agCBY2r/iWoP74Tbb1yTAmIyJVDkaKfi8RHG6uz5+fIEgAA6tCK8iMjyFIIPFj+uX4nQpmfuyCcPwYjGM0scqT0N6Y2fEop2cU5G+httXwO3OXpE2/ZMzs8AOKPW8RPZwGWYKopAbPPXu7dF7iMuhdQ9pFKnQbLiRSsIhVnFBfYpnCowX4cWNsZVZEnk74GifSxJO0dZ93/yFmn3/75tvLnEuGhjF3y5v7XewbK1nHT04JrC+oLNASOhU1mb6auuSEsIqi9OTGnz7ZWIOql/+8HuOsl8VtldHCWTb57Z9Hv7N9jgJj50ZkzwmOf5JRps1KxOuCPGEBGgEHigbv3/Krw99QuoVr2D9erYJpchzQ0bGfBCkqvs+fmbcOZHaD+iJGIVRvQZdajgafiRSmLim3aBi7HCJOPQ+ajfTM75JwomHx4y5kkYNP+hSMteHMxFRGm5RHhjMTLFoye9v7yEOpUxeJ6ZbkHonwod2V01RfUpSpm9LXlRGeaA/DQOmU6hYrddRVpi6+124I/3lL/9z5TTuBC0FkW3345yXGUci5V6cpOsgcS53KmV+UlFTL3F+sFqgCctJh6UiXPxfur/+njp9f//7P/4S3TZmpEksRawKIrOd/ztWna4JVVKVVLp83ZOYq7ezMmIFRxasw9y8aW+4Ko/eN4jUZoppxBE0LDfqGeNJ4t5dHz/LPDhdncDN1TFbj1KcLgWnXBIpl94eQ4YM6W36YpU2XBbdxxtdJLhmmVT3tkQMShtBe3iUQhzFZeh7juA4EzeiQU8vIpQSYHhZmwpn2ISRPMs/tjGy3hO2Cy/PooKouEpvg1+6tXwhCga79MCdK2OTp/VNdRJpfvGLX2p4O5y1s833BeTmnqPtc5lF+pAu5kdN66V5fvU0SF6iJCmp8vXs188z1P/3nERBpv4aRo4PJvLOa65guJeAad//kjUROWDgZg+sszVCko0zyndZPjC0Hlu8ePFMiNT33y/nm4BAKYVBpJQTlyyZOPEcfkvweeP7bnuiW+SEPQKQwPjCdTsIpXhdCig1fBlMcB5zhk6ZMn4KiBbcCm1MmTLw0emdO08vN9rbLFK0c4MMoKn3xkzmUApdfoOXrd7/dMT1s5YMY27DOnmg/XxuZm91jFXyPhdXmx8c+aA+Cc4Skbfg4ocBwIp2TUHkkKo567R06+K+cET3/tPXf/zhh6+/fNUCNzq4j8tJBZzzeRM6pZBIR1Sa51UQx0X2g1VFUMoNnTrRkv9X3jPpZz/763+/qZKaQZJ3ZL+i7EQCqo5S/Lfdz786nDiR0nc8Guq0lX8a1XvVEsG7fedc7bh27fasN1xdv+dQak7v/bOn9tXnYviSSTt27Ihetw7Ty0fvmPVd0DzSpeBTaks96CRTvHPW0rlj9W6zpEvpUcrj7Jodk6zSAlDMmHudJGvzIRGUpGv3xvANP/T4yWaufuHpOSPL2vBdcGpS2RlNu2HFViqgVKFMbGq8VVCUSf1YuQWtuqaKc1neCpPzBfImFEm9MckGvT2Fv/jjZ19/WfrlHz/746sWwGH9Fpr8bjE44n434SKkst05vEhoAmo8G7hxiHQCK6hKQoAavxMnUvQgBZH6a35tnVYbS0OnAisu+8fdgLW9qCrLVitLO8Y//R0H1k3z8enTFSkUI3Yst60NbuMtXzu/4w1X2ffLN//611AmzIzow+eVbec8xOeMm/PC/u3rLx3csTFVCDPBYze/yEwhmjuJvCf4fikepYa5eExJO6jsiPZcmd4jIkXlcu3e9EMRT0GXcn2VzBP7nx42ITmrLeMl0Ye3Qf5sInh5yyWl/rG1xS318Ev3goNfcW1cJSKt6AnGg9ZbmBIeDkLqH374paqXSKr58rMffmk43vG/7kQ2HQxNb8Egp/YixV8Y5uuVrTClwaoDY3WNUcE3Mk0oRaM6yEGKyMsrwfMB/KT6+RV1bpc3JflvuHZg3bJ5ttDhaDT8ONtZz9zktRVpE729lUeXpJ3lRMrY8Bs+LQZDbkE0/1PElPE73113n6IWMo+JUny2RYRSZPEz16U8psRM8+FjF7VfysZM79sztwyYupc8/+zZ9XBIwpw/hFLDDiUrLTn39/k8+rDKJpHigILDfClG15/T3m1oyU1P8URbMK9WG4fRHpxZUNnsl3dOLBC9/PVnX6qAVwz75pd//5O1RqLFXWKwlA47xFFJIR3MeYjJewMfeLUqzS9D7EyVRuyW9ZlJpP7aEJyXF9xQE9mSc6OoqMiXF6mUWrn5df+b1p2CXl83tk3bw9rm2OjXD3D++j1082yv2zH77mBy3X1l4yE+FigFkSLzVwRGvUZsTwuatv59LjrNsW0cTqG22dBs6TCbK80afnqLn4vH2bRpqOP0sSRqAg++MmZ0h6nZeeDa0p1nzkydHjNC4mZEKSXHmedL/HwORO+zEaVg5+M+hlww1BTMuFlTlILogJ6+kXdrw/yzEn3JeZYR/eLvX6tE7DURKxT1+eGzNw3XdPSvupVQjWPK3HRuTqn2p0GiKuo982XWEOza1yaR+m+uidcLkqZwlnnLSsh3yfNWYGd2+fbM/p32iDZg3r7lyyd28bm6fPkAhO/twTu7dmn6o0fJyTDin+1N3hNGI/rweTFT9BEDIFbbo7Pm7diIsIWvHVmLiE/HTm5gaNAyMgLPzFS78yNi5479XMGN6jXXpaZApMil0X24ok8fNIN9aKEn1zGcLiVie6CLkGXkfe/JL0XDiO4D8wR0qUPJe1xlCG0IviD4gXpnvbFOP0OiU2o33h2sXKJOjKuLyivIQUdWkm9zeA5scPU6+Zd//1JK5QaS/umzL/m1DpZ40MqC5lJIi39CixhbbYliHam0RSkZbUYmGsYUB5osfn+0NEgW1vdLKdB2akNsy+zfa5vifKCJTx/6os/I+hJnOfWyUrSPcbeb7oHk2w6snwKROm5ym+UafoRSRECpAbD4ocEpckpdOvpZiknz2sl7Szf1gsZtc2hOs1w6rRz7+XBESLpO3hNmutQ0cgvfg8j/JlrJr64cu/D2TqKNj69SUWELBAeiR7i+yvVLucyZkIzRaBKfiQa2t/+S1/qPb1eu2Lli584jqLfdJqlYWXIxP6+gKD04B7jglf/DZ78wJCeq/OxPTCcpUzZDM1thltNke9XymbY4ncBRrM1M0rXDGlmYTqvTVoX81dAv9d+llnalwubIMGe6/n8tpULvhzVIhCZ5xySiU3C4R0uBwmIgzSBEm22LUnzDjxepaDX6pRjMUwWhcmJ7SZdueBbRno4ArpbaMfjHmHN27o6NQQNG8OYJo8VvStppqthLZiDk7Ujjh1+h8LdEs9cFGVPp9gpXiMv///a+B7yt6srz2ZaR6OSpUdX3eF8dCRaEUFstAfmh9ShVkGkjVUhBAzsqBQFGlYFOiJBkRQItgwgoyCZJgwhuB9TsZrIhwWVG1jKWMZYQLVhSbeE/tH7plmG8JdPZpl9SKDNfOmUm83X33CfJlm3JlhO5+eN3E0vv3Xf/Ht3fO+fee+45+26EuZRglksJBF999hq2Ztg5+1cFnJySfvLJv33jmsews5k+wq8EI5b9scCfhkQkA20mWB/I5I+/xmMlZ2j8/uMflS4rdoWmMbldRoM9MZW3v8Lwh9IFLkXYiiNuNS94xlFlR45If/U7YFS/+t2nUfiZ51IwmLgXjk6hJfQFGefSXORX0F80tJcNq9BNMNYJB5JHDm79M5g0lc2lrrivOJdCTApxKVhEhxU/JOmBbgucTencvgvME65ft23d+qPdnaj5yEgU28KyH69Kizv/1wP//Kc/2nI3q+M3O5cCwQ8gdcPD37j55y/fU/z383te/jn8wT/0/56Xv76vDpBiW/XoAzceUioPgfYE+B5ludQNO+7+q6Lflv/zb5/8+78rjrSCZ4+PraGz2BErDNW5AQsa6Ucc+YD15PH9LHnQNnL0+NLrEzDiA07kVcAgDSAELAqM0uzwjSJjl/MewerEFEAKmKI5lvv0V7/69D+0JG8WyGxSNkcB8fOycjd1o8DmrTffevmtPy6axkQDuwxSSPADLrVYEx0O3pN71397eOe6o8f27u0GC1HIWjxyr7BM4G3+yY33vvWthSt+LJe64uFv/O2GDZeV/dtw+WWXX1bQALz26/XgUmzrXtz3I2Sb+kHQnkBzKdTnHTeBB3oIn718wxevBV/Dn3xiA1gpxgIGNVq3Qy91+DuLwNApm2pKL25iTv3+RDNiTWA2H82l5mNhQcng4jrrA11Z0ixVV2AnNN0/bfOpFzUIECVyOezAFZMCUNQYPRU/U86iFlTC3a4OBZiDD9z9F8ga2awdv5YySG249Tt3IcFvkTkX1j5hM719e9vR9TvBmu7R7d1gVQ0Y33KtbKbBCgb2/qJ9KcSlWEihgV0pbPj6U9uWK7zG58d+8BiaK/0I1GbLIFWs9LN/8sUNt37xT+75z9/4138NOhRHFM6gebD2E76LmoD3awkS2TSDFT8WA8CkXj19/MyihPMjGk0mmCdFx33ixXoODNMxfiTSv0inAnAfN7vtcMwjo0fSDw1niHnzi+Xu/ggUOPy9H0F48MlZSKEVv8uK4wsg9QAFK35FSLGvvMKPBKLeCKiEwu+GbwdUodVAsP9OFxYDYZUdnld8QY40gR4s75nbCvtSgqImemEutRSkPntZgUtByRXLXQmleDhO493b733i5cthq7fEpYpdRirwaFfui//pmmdDli7YNbXZnEmzTK9RsoaPVlIRm5amAUmg+PI5kPwYJDlj5Inff7T0vhSDaXw6EgPPHeVmm4tVM3h/UprsLzrJKWsPGZUHbaq84kqpHLay2Lly09nMBsuK5C5XTgE4PIDTJO/RrXOL6HfcdvM9Py8EmMFsRSt+nYAdXhOs8sGcqsJ7b6SB7j52YOfwt3fCokU3TgNsOmHiVWXsM00MQOqLsOJ3RUETHWlPFOdSIPjBDA6dXFoQ4OzUvhdFu2CNkj6bhcb5hGHg7d00cu8Tf3Xr7FzqJvAxseG7hYpR7V/5ky9d85YEjDBeF7eYfTZQPHAHA0NECzLVh8w9QIHobwWB9xrSnqCbSNCeOPna0hnB56EbDM0SeWfH/IRQM0NavYouWLSbDQWplBQM+Frt0xqNtzXCTgEr/FCzWbiL1aVAJ4/3y61z2hMP//OmTZu2oH9btvzwh3/+zE+e+gEgBUDFAEggVGwMWrsgj4G7SHBasv7AMbDQ01ktKdbQ+f5tN//45jIdvwKXEqO5FJyw+IubbilorbOq66WPJ558EDyHffNbe8AF+bkHMBv605v+6jLQnpjjUhu+8v1bbrnp+99Hld/0/buv2Yfq++bfHyUJzaArMmNXgFX0abn+LKVAhrf/NOj4xVkdv2XUMxhJSgq6E9Yj2YWqeHB+XuawpecZTEL0YKhU2KbqUvNpUgY2ZblwfikA/OTRrbeXrM1+hnj4mfsevu8Z9O/hh19/58WfPP0PsGwODh937d1LAguq1NgR2KSCuRTWDJMr2BQeBnYFaSsmhQl6wzNb73/6NrA9wWqiszp+s1wKIHX3b2/fceedC//vAENtO+785r5tdYLUyFtPfOmeH9/0LaK4PAFc6p4nf7QD1Qt/qHZU40+3bAJbTaB8TqgT5nG7zWb3JQPW6JyngUrUqBjXQNPUyePHTx8/fuo1eDtVTFOKZBqn4LAU3l5Q8yvFwjfD8PVOu7lxHosErins9dttSStoA9CMMr60VFlWHHe5ShSAY6bApb5aUq9rvP76FnCfiwJ833DDHU89g5YhDsA6BLgfAWeqINwhqQ6WImDChGzAA4sCJoXWxICHwWIg3d0GYuDwzsPHttMwdpDvBRRKzWea2h599MWf/PWOKz43by5V4lJ3bwIlIdBOmvefNQ3/metu3HIQZiPnHsC69GNb77rrrifLudQ9T750PaoUaUYB0ECfQ3nDnQ+BRUHoGQxnnE/FUsYMOMmQhqcS8UaabQZ6VFNggARn9vfvP0PDxdK5GNiQJTCPadZjW6ECyARWJuyW0tI+3LMtI2NGhSKrbWElwLNcmqypC1yiGinQ1NzwP7f+zWbkmbBC2PzY1tfBkwbYZNne1nZgHfJGx65FICPv27fDOIFjt+BfAQBWtgPS0LAdqTDthEV28LcKqVjIzcPC67ehuRScl5rPpb57+XevAUih0xdl/9gBDkeMhTdu2lZmarTGDlZIBkvZ28Bu9vtbyiB17T1PPn4D2EGDI83F+mCud+cWsEYxV4CEiqWnvGBW1hH2y639VCPiCGgUL9ghmstRdgVIYg/Jl5VX9rT8stehE4ECBRzULQtQTcuAw54Sz8YhQDH8jnRYqgqAvjoXLhQKACx++dCmX6MTgovDr//0h0+9jiPEMM3YCAIQTR5DPAuW+RDP2gOQ2YsX2BBvtkewsoWSSnah1cCdBw+07QVzeOXSDoN97TYwjVmRSwGkSkN6/rfwCx/euGVzXSAFRuLRLlrbN+dD6qUbivypWDFA6qEPoe+FwLIE4FYtUWt71idV2NxjPbJeSoy4RuFZKeW5fltaAxjWZbfOBx8tTNnCiRKPKlQqUQcyrT4XeJjnwoVDAZDsj70IurvDZf/RDXsLCrsvPs90AoMBSIDBHwZkvIYGMAOPk2BqfBf4oxt+883hdUdhy3c7bPkWe8UDYRJ0M+iRJhyWq9uO7nzzzfWQYs7YKoO9ftuzr7a0vHpjRS7FGpOZjye4A3vWN26pD5dCXQHOuRBSj98wv1KwjfFQmd1bNMIZCBjylagZNIMDUoXCne/qJSrptp7DL5yCkx1C07hofhFEUjEeLz+ii5GeCXtrWE6hY73z03J355UCwFGW2KRFj0rqfMBoIHGJG8EDEPZ2HT2w7sWdB8H3N3g2aWtD0KKb0PyJgc2p5k607M4j29YdfBF4GoiB2zthugX7NK/f9j3kUOB7T4CFpLIVv4LgN39gl+4Ql9q0rbmE2zrQrO2Vb8G87XPX3X7TV8ABI5pLfa5UGfvNcqlywZTO3+0AACAASURBVK9QZ2H4Mvx+gxnZ0LQ5jYG+WJR1Q1+fkW1WWDCLewLkyWInkWTZb1aEtQVuhHBNY7hHZrQ5I2C8bzZdHWjCFXEBUABmSsCLwM9jYQ1jGM21wJNWNw37wZ0AQOThjqEhRds6WLVYf7QNHvEe3ffAVjiRf9sTX762fF+qAKnqXKpOc6kC1Zi2Vx586fHH73jrn0ArC0GqMpcqjevFpAYNIGE8MTnugPOyTmNOD0IgjaZV58g0Go2ZDvAlOjqHFDB83j/Tmu0obImxMzecMMwopJOa+Yc3FreRi7kIKQDWnnjQbDhL3wCOZ2BDFtYx0Prg8MH1B4ArAaLQXAvWBzF6+95dbeC7GFYDj25Dvn8234ns+MGp3qsEAnbFb1ku9cISDHXFtDt2+zeRe/n/sQHMNLFcapHgB3OpqqUiXgEPSTjSq5VP+WwwuQrrZB2Ccx7kalWQ0EtNSiBpsXKG1qukPQTwIxrFQLzA5VM4c3HxOaK3WD73dWFRAPACkAJeBbIerEqAFkxDc3f3rrZ1w58H/T+kqgR7Wt3dOJqIAbpGuncdAE0LtBi4nb73li9ftuHP7prdl1qOS9U+l2IbtQyhmtue37Nn256N7yE/zdd+eRGXElyxY9/V1RGCBnwRVzi/P+UHIbDVlpmQaUPCgoG/Zaqv9njQ3cOXH5kEbldKQWqDrWYCo+kCyHBxr1lqm+lD56VmYVdKy31fMhQozrHmuAiDpEG0hHHg8DZYUYdjVkdhmoUA2EQjbgWsbOff/xfgUnBQ/nrhh7VxqWXmUjDRQoMcVQIBrVRCKLaseAXRDMC6bQ9UP7zxzd1vv/3BhpdBxW/DV77+OOxLlU+mrrr+zk/gYAbruRNKhbLZ8ip/gMfRfn3aH7YdUbi9fjky4AyhALvKOarE8rsc8ha/zVJ6DCoTCbs0jYzEoEbAgd4+o1SRtSq5Zb4SidbUN4zqEZhH7d11dOfGjYhpAc+CAyHbu8FVZPfetrdu/sqGDV+663Ew/tDyNVBIWo5LLTWXQiAC2nYCn0R/DQ2dnTSNfCDuRbIoOFM+AC6XQSD99pu7d7/9iw/efffviuG9HwOkNlz7lVvAqkw5ouDYx/f+XWpz+tNo8YFmh3T1H4+FHCnod/lnHCAEZiKyXnA6j4b9ChmJUOfU92aCs5tStMgKUh8S8Vh88kMpp0I1SUF7Vlhw9bZzTy4aCgBDgIU/aC6s/sEAh+OLwJvQHjDsAoMeRnfTf3viSy+//LdPvwWaT9c9c00JUo3zB3bxbul9qZHmERTobpIk96KtMzgoOTz8+d27d7/xxge/+c277/7sZ3/3HgrXvvceQOln77777m8+eOONt3fv3rj7vVvhvNSGLz/x0g3zmBScNL7zt1ZX0q1QOI0pOKWx6EBF+Q9RHPLI2WhUn0s6baBrOzbZ1y9cOlt5EXANqInOeJVd0j6EHzY0trsdBuToBmGKjJozrTPtHtYMM4epEo3W4DfgCkELFilGRjqRQHhsz+H169ave/uHDz19/y0PPH7o6keHH7vpS7BKsOGafYdmrUnPh9ZV18EiOuJFMNrgs6lppJkmgf+xO8/DGxF83n7jgw9+AwzoZ+/+3c9KTKiAngJ8Pr+RVas6fPQoLPjDsiS48e1sWP+zz97ztzff/J0nH79+PqQ+c8OdD+4hhVErzJOkUlW2y0pJ2B+vwDCq/I7QOkYi9MRkk8GMTWH3ZXMGTdEtARLbYP2bRp9olwHeOHu3bd6Dg/5JqTAGG5JmCVO4YE0MQESYFapBVC2Uiw8FMrawPDTP/mYpJ/e9likwAoZYG7oBWKAMuPsnv376rXdefOHQ+098CaY03wUdP+TgACwmoY9yUCFIHQQMFeQ4YELfBgwBiIAF/W8kxbFMiP1AaHr3gw/efnv3m7BEsvPgusOwGMICCCZzUHU57Ruww+++99DTT991/zWPXzGvPqSQhHT8MIZUxlxJ0JdwGts7lCKcLs9f9RoXh/SpoFQB3CpvNlBCEayww/o34mYSIVr0AOfpos3P/vmDf/rcHryEKcCQXtGjdsJ5KRQYujGlcMvYMyUYLrCMK2w9vQVYV62Xe7BGKdAAuhaI0zTRDT/Y99yL77zzeoFLXf6dh94EMfAFpL9ajie4Bkj9028QgEqzoPcARQAeYEO/+eAXvwAh7s3ifA0tMiIEgSTYTHfCMiOaWkGAdUnwIceKomVkP7Zx/dHn257fvPWlRYvoOx66DhLC8AdxzjMI4hxMrbJpPegrlOWvfAkp4DQan1DLI2OOVoXN509bPazbNzAmZpJLsAZQW3n2rj/8y8k/fPzU+yU9I8g1cCQQgMMdNFtsyG+biYNNTTg8r5QFFW6/WoRAWblKLnYtUwDNsZDwxgMiPL71jsYvfPjhM4XzUt9/aPf7b0N47v1HX7gOjOzN4eqq6+79MuCnOAX6PCvEHVx/+PCBPcCDAEMAItDWYAGDpEMoGnDLw0bgcH4nA0v7hYDQNZ/yzd2sLPn81pfEc5WxV4hLobTFISwh4laXXyV1+IyBQWUJBfMLm3dHo4w4uKgahRNXUps9Y4qkYeOKTijs7S0Ys+d2cD4FThL/8Q9PPVNqE8O027syeQ87TyL1wVZjnEbiItHllboDvUIokYPUPCJzN4sp8NzW+xo/84VX4QgiCH633r3v6m1Xv/P++2/84hdvv//OQdZLdUGdAnT8Hnp9PZLhgAFtL0BncWlnEwPo42F7KkDq2QfLdPzYkhlBLBeUtrY6smk1gU75ovFewlz1unFx/4B/xtZ6ROEzyvVm8OTbJ+I9/tf/wnrGBtfYv4b1hwKqWvwz5lY4IY/gGA+3BtVwxYjUOkVrfkBUvQLuCUeBOQo898CO++6475kbn7y5MJd6DRzNf6g8dGjzCy9sfvT199/cXBABYcVvx5aDICryWNGt9FqfK+ecrsBh4dbHW75wFbh+LIWrBOLCXGquYCRywUxIY3XlHeCwI5juRcyKxdVcosVXkAC4VQvRP+gKusHYf9gOZpQnrvv1b4FHsZ58T4JpNxZSDBZXJY0KA1uGVaWYQioTIm3QbstawDAMJ/ItJi4Xs5gCj/73v3kWwq+fZLnUNfsIJOzBQsHn4MzUF7Zd/eKhgjiGNNFhxQ/WxniLyzjnGIDU048d2vZC+b9Dh25/Zd55KRY9bFVkSNvX5fc5nF5/zoKWtJdrQJGTkZR6NB3JgFXnKxW6//sH1jE2cjf/8U+3o55BGHWb3KYQFAg6R3Y57E4JBvzgMTRBoSo4SLE04j6WpgDyUw6KQc+/8wS7LwUrfi0fflgU9ZDT4KvA/TcKBU10eJfPaUMsXfCKngKk7tr3yvzww1fueui6BdywbFDjgrhrzAbWaU2ufgEwkznAlSUqa8Qs7PQK1oJl6ycnWUghTvXx34N9DzYtrPDZcrCohycUinbAKtElPeLuU7LFz5ZQVip3yVGgCgUaNt9yM+xLoVO9Ba608LPApepyBHFxE2Cwih776Vv3vjXv76c/fW7X4rRzMYyEGupD64CgMJvSU6wMiIb9MkMfTNC2gikz+W+LXAow9fGzhckhhplbFcinqCjtdqb5eNwclo63x2tgg3Ot4q44ChQocPAWsJC04XLgUgvBVLhfWnviHKkIIGDw7pFuWHYv/xvphC206oGFj4QaDYzbW21uoxxtWiFALQ0pJu02BayUiPzmx0XB7y8/+vgfaJYdMqT/yiuzIqxR7rYPiIUDplZbtgPUY5cusXoLuSdrmAIjm5+AuRRAal9x7rQQWHU81VuZzIvEtaaRhs7KSUuxgB4atowkhAZ0kNw2aSab6xXQpadVvmlCIxTRGK/z9t+ehBU/BKs/vAJ2aljBT2C6stWFKc0K36BSNqOwT2qFUAMHqSq05KKXosDmW+6///6b7//GpkNoeWJxKMyl6nmqd0FrFsyaYFsLtoYXpKl+KyGGZJN5p909E5FrPSKWrSyFBdg6e/SHf/h/aBX9H09+/CwN+2WocI3vSm/c45fm5fIxu3PSWucz+NXbzz255CjQsAfZ0Lvz9lu2VIUUWvFbpblUXcjJSEKWgMlxRJHJumIsc1liiQ72ubvf2foxrFD84798/OfbSnjW21u7+iMKn2tKemTMIqpLu7hC1igFukV79+4SPb+pOqTA9sQLC1UfLiBiIcGR5BMaawD0ZUHLNh1b8kgTaM6S7/zNUx9//PGmHdvA+wIbcLnCnU62OlRSadJKkfSSyu8XUN+5ply4FNi76SHiM7DVuzh8gdVEv4C5FCvrAWUZktKmJ/IOmzM/lUaeO4qh9Lx03wTeANpef+ne517c1QnzJWS1CRPojtgysCBoN6ItKcixMFMpM/fNUaBGCux9asshsESxOIAarXLHlhdqLOa8J8MJS0/e3trq1oGGBY2aUxkcPHiCNELAFO0J7YlHPD60ZXUk085uRJ33XnANuPgpwOzatIW4HuBTIQiVSHviougjMpOEt3jUhgCsAzpn/O16/hIiXENT81dPnT5+8qPTp/8D6VWEU2rxRdFNrpEXAwX2PvXULzd7rqYW/7+a+uWdm164gAW/eeQtqos3Cwygun7kiHsK2U5Cy+EVQsMIfurT06ceeWT/yd8duVKqiwFLq5yyQmYuiqPA0hQQPXjLlldeebDC/wcffHDrpm0X3VCjgVklzCa71BHOpnqFNHQf7QWz/UATKPjPYKfAoQcOp7ok1t+NDRaUm5YmE/eUo0CtFBj52g/u+wEKz6CPO+Zf3PG1XbWWc0GlY0Qhq3wiDzKgaSJtFbL6gNDA2YNPjxz/6ArYp4Ioif74qWrTrguqS1xjLh4KzIk8aIhBAAvQhQvYduVdxBIRSegnneBWG05aRVnfBKx4RxNg++jE709Bz9C2csOZ0yfh6HGhw9wnR4F6UKAJzrJXLQfsn1wsw62Svrw4rpdPmBxSZz7i0iJ3Gwwm9mdDTadOv1aEFK/po+Ov8kaqEqA+D4rvqPoUdralgMhbEH9rLwDYOs1Acvaj9myVUrJvblQelIWKrDmU/B7Nihg150QJodoV1VYoHFqJsp5FzrnGsUXw5u5rvkLVQvUXQOAx5FcrNIMRgwwY8dmlmfyETC3AQ84r/dGPTkqKnW3CPjr+yNlQvUJV1aJgznbmDFb9vVUt3/mPh1F1jgNrrg+kpx9sFYBpHU90dudw7mn1K4aMEjQRrW6EuHpWFlFwhBXZ9Vk24HOLWZAcnDSzFkiWzVYtAcM+KFCvcF0t5aL4FSZflL9+EbDTBLRYEArNw6OWHh+ctAKrm2nplUciJ08/wiskRJB6dfUhdeJESZpe0L4/4q0gJnMl4NjKckFijRd/VHBDRAkwjTxaDwJFsxkXlENrTeByciWBCnaJBszKYptWkhPxKLEhoNNNWpavUh0Ymi2bGBSK0mbxuXRbrIniqH6RJgTYnC15+QsJOM+g0Nny8x8Y5syJCpwAeoNeFXQjsvY87rCrQFdC4fuvJ0oN/urp0yRYIyvdrsY3D8MQpODrfIaOHlPSmDSmYHDN9bZwVbxnvxisJZiaFfapQAwbigwVcsxlO5t+qMO2INTdMuF2e0CRjKDA5AFJgFIl+kCDTqyUCNE9hvGpwreIoMSg2Oz2k+pBvkRJKqkWGlovppQigaS2Nghz48bJSTAvMqu9uaAXs7eWTGL2ejSvkRhc/CKhZqNrq7KQKjYWjEKvyNF8BDFniGSLgQ/2pvi5sER4HJ3WClJyOF+EssyKrWzmhalX+543cuYErKzwFtYz2yoMa9RYujLOI7C5Kz39KgNLfk0YeQKt+LGGoxZmrNs9mKbaPwvhupW6ooIYjJ9UWZQSOMQiQ4PYAxsHtEApoig+RoL9UXD0DeuifBjCDNbozdGNcIcTAsY6IxeLKFDzlxAe8AKOK4Uw3GsczQsaqB7z5wdorN8UcXowpdykMhlEhDFN0lZTLzvA0kGXcTwtYPBQIDzTToFn8bTX19OPaZx+fipCaf2ypC+iZTBqMhzMRToWFF/ldtQOhoMxScoUxUBUMaj5mCSuGTJYwTdzDDpEqjW0WG0ZjYowi68Pj3eQGH9IQ007XFSHVgLXFotGggmtGq1BS9BV6qgYbVEoUiCsErpWnxLe6aA8yjA4DlNTpiCG4mCdEqZb7Fy1YKgSPDAh3tQBnjc1IOeiaWcBVJCVZipWsuqRZ/ZLWNNnS1UkVCEFpCuPqE69iuDHnPj05PKi0FIF1vKMxzux/zwLfkxvJod+Fo+rl/HkdDq/iy9xZc2R7HRU0GXBsZZUn6i3R6ebkvMBUqQrJ8AE5nTLhNSr1ya1uNas00VkSqHZb/ZnzfFaOr0wjXqsfdpPSmRdcjclyhkDZp1qSOTKpwZM5oJ2pbk1a54amybUpuTEhMmo8fjHpnuCSQ9wKfGUL2pxBM3TmaRYM2WamFBltDUNcDzgEyL+IBxqFBmSOn8wQAkm85GIaSoUN4Jtx5hOTwWSfl0wjY/6+sTmCQHm0XWp8za/2u9VerqCOl0wJ4llklP+cd3ywmNZny3OvBf6JR9z+oQ0JTf35NSYJqfFSdkAeiUx9KjMYO7Sixl8KDcZGAVPTFHXpHkginXM9Iktg/yOhCUwmQbvMb25yXQiISgr+o93OSI5cWZ2A6BatXHplQpHXhcI/P6jE/tf23/q9Okor1rausU3A6QWs8+6FV9LQbhcpQdegIQOQY8zYJhyWvmR1qShy+5qTCUpsBOlV+bD7Ym8VNsyliP9IKMR3ohYljFTA4qExpdJDSSlfYTXNm2ZaO2qpcYFaRi1Vz7gFXp0aoObInvVRFRmS2D4pN0RFEiGDH0GQUAxyuBdNm271IphfdKBUUWKxnpVsn6nXzwRDo2qZLgk4Au1u3tp+I6hF8SyoTFrErEMAsOGvP6QUJZJETq3XpDIyPCIN4RFsoIB8BSriYTVAKnGiE6IRU3TIrmvt8XoJNodA5TH79bopcl+YY9UvWx1ZQkMmYBbi5HZaa9PqJxUjeUdWSHlD/ZrVTn2ZYBP2cPjGbeB0Y65vT57io7qHGNhm18Un+mjkn6B3KEay0gTGOV15322MWRv6I8eQK98f2nRoXrlMV8wpyde5Z05dfzT48d//+lHj6yu0IdawvAwgFSFeV71Ztb7CcNCCr2vcbrXARMLYspPRZxazGPqEfdnumiZV6C2G0ha7c0RwKUiRgogNcVXj41iCUWfwZbCAXUTlHeMwDrsU2fRPIBUWqPTa40Cg5MSyQIpeU46gGEGaWuOFKSz2Ww0YAdhTqawBMIaEH8yrgTyT0QEu+JuP3/aF7KEYxiZ8sWnnMAtDN5YTW0gzeOwyADCloaQQ28xUT4Z9WcFWL8vgBmco8LxNDZlBK7RMdM+6jMIEKRCwQk8Ee7nGzMeow/8MsXGDVZ7msRkdshfezBkZP4UGfdrTT6hcMDQodVl9JjHaBozKyXaPoNeMuWzUtpw1hOc0VIdujwVyBgojdkX65gxAKSE8kyKUgfNwq68VakNgtx6HiAFlnT3719u3I4IwL4mNA5Evv3aU6dOnXi1oERRgVSV5mUVktUQBUfyAey8GlKuWhKG6VXBOx+GaMpilbpgdpFLRiO+EEYY/QKRMTzkd+Fa9BpWZs0UcKmJJEw2ZgBSeRZSCZsBw4R5v2fcSKPlAlTSCgOjHnPx5bouFwZcyuMwDnXIAVKUP580qUmxUqnEAwo5EZp2q9MOOeVJ2Q1WqTlEJVR9MJcST4dnIZXOJKjQhK82SGEWpwUkP74hq09kDCTm8epC/ogY06gmaaHfLDNqsMmghyYHw3LgUvyJJMVoZybIgbCGn8xQOlWIpg3hUb1dhgOk9CvpssFpsGY7cnIRQEowKJO7sm4DRrts0hhI1GP5SYFfB+2aGut1+wEtlrw66IMZSGhsoASpYAjjm/3x4CQgXh6MrqTuuqVlYBFg/yO1hzOPPAL/qwZyqYdVc1V+sH8/0OV8BoYWBTMJAicCilTUZ9Lg2pmcwO+LYgS8EDFtOD9DYRqHmZCkpTIhQMrs00pk0in+kLcPG1D0aW1+QiJXdBEzRhzrPytIYerxFDlkm4lifW6KctuDM+5WOd8fVHv8+RBLGvCYkg87U3xN0JH3OrKUcsIxnnfkhexcCiDlAzmqXaURmO15r1RVm+AHywMOnUxmtpsEAJCUzJgZJfz+RqxfNYljsRm3jMb0vqA8pTIRFlUfiJ1muVHaQw7Y2z3JDGHIGNPpjAq8zsqbAVIgj9YeAFLCMTNMQ/MqQV/GQChzTgsmTnp9XRKcikYJkK1BVjAFNU6TCJMEvFF/hsJog8oKcykK3nMIRfweHfBUAhP3gKHJ8xCAvUv21y+cAHzWL/wRxMulSU5jsey4biprMntIC8z/TckofwrGtzI7JcBEOdsULHWlvMbImDEkNrXjeu/Y9GRmQhQKevV9dpjneLMRU7ZDacri8IafwpeurOJTT0pPC80pEaY2CySWHv9kustKmK00Fp8EgQ/e1GZ7YHoq0cgwmpw/korSDCGP+LvUGBGQSfpywo4cLNrpuwjlqHl6UjemBlmjhoBrekxer2lyiKGHdGPjSZlY0JUTY56siwYe4YWa+fLk+Fh2lIGVCqzXOB7M+VMS9ZhJbzYKWwaC3jFdHwO8GsdGwbT3CoLB3UdOuf0UmVcJDc7pVG5MKguZk3rDeJp9vdIRt7l9WuUCqk/kJlUTEqsp2x4IBwlY8aOCOkE6r8H4E1kqlo+kJp0wlzoPAQQrHg8cHHR2klX/wdnDJnjYSTbBXhScQyzeV8jQtP/ECRKlPfd/UBe5+hO25SlOWFNdaTVIF0w83SXzYKR+QIDxB/XwC3tcHTDjIPWu3CBBSwxDDB5zpeKjepLUd8U0aQ0miaXaQYLiG2BsCWT62obzvCYxNLjSA5UEWIlHlu1pCazSk7gEVodBuwHKA0i54zS0DgItQa2E/yQI6fCmJOECR2khPx3LBhIyUw/y/1BTIIl4nEK7roy4vwO2UHEK7iT9sBqHefqh7wwujGtgG0gcbYR9hf4o7JjhZChOUBoSo4l4P3rUIWAYAbqqPQxN9DL6yChJdk2KlfJsMpKaHrXqtBjeHmAd5+KRsYDR39eISUZ1QV06hOG9U0ljl5oJmYcE7WmxPkdgEplLoEzrkj3GpKf2muudEuYtTeDQitdQ4RMBCFl4RyngZC9MvtDWVJWE5F+eKCSuVlot8aiuQkX17udZlwdDq5AXDVk0YEvfaAyzA5mNn71mEwMGioGhUZbZ21J0Ld9sLrZGtgT0ge7YrOgTiTooajagy9LzQj7UPr4l6BufXOl0fbbgQqFQLI2KhmJptsZCWwoxxTpL7ShmZZOV4pb/pmH7CVkyYZBTTvRKgF0neCEwWDPJ8njc76fhBYN6CK8WtqM4erfA7jC7gQV7WIB2HJeZ5L1y1eQ5aXIs39p6pVhqxYCHIMWrV00XRDmFMQEjiWaHUmGkoEj4g1EE9+gHZVMVr1E8m4BGW5SF67PtCsqNioCBNldhsd5CmURcVKwCpSu2A7WIRjnZtsAFDE9PR7yFhsjaAmRlc4OJbvaq2BW2DvSMbUOpp/ANpRaSQBXoIQT0iVLUVmEhFVsGDRnhD5VayAz3CMyQBJ/sgSeFUHw+mwTBHQWUrSObz+eTvejuYg/kqUsNUrO/yIp+nGLiFeWZrWnZi1Uqdpl6a+lTWctKl6XvZUovf1wxCxvJxOMoIbqumGi2lMaYBXQ+LoHAazp1vndnLwEqcl2oToEa2c7SeKte/AX4pOkEaAxygaPAalFgBZBCovpFH3g8EhQeLvpucB24gClQI/+BZDWi7wLuK2oar+m8q+Vd4BTimsdRYEUUgPOMjyyn3bSiArnEHAXWOAV4Zy6I/dk1/itw3b+EKIC2gS+h7nBd4SiwWhRYZlLIPi6m6VytNnDlchS4ZCgAm9mkWCBoEUtoYZzVtVrQNXEHnAUglZq4RyOiy+GHdrMZflR0SSxoLug0d8tR4OwpwCgTctmAbMoiMTu0FYqJg2Yjpm6PmY3m+UdUGLyRxDSB+ZEVCuCiOAqsLQo0BgIxpVCjS9Mpm35x1xmxBpSO5V2Sjj5NycVokVepB1owUQhsg7D35QxscTErixkZqWdpK6ubS31pU6BptTe1GLzPHUM0DHUwfXBKEyeiYB4IE0aVEgYnPEoRQyr5krh/Eiw+C0HGE0Q9YElIGI2KGSqZV0tYI1kiD5gMoskWvicEeesSOEjVhYxcIYsowGMaeIsi6xohjKjYEwS4COtz6EUJ2WjAgnf0xSyDuLqv19DRYvDrRZYxf0wjM/fj8UF9eoDvcY3KUtG4T2XtN0xrsFhCL8v1K2WBUdl0utJ0bKUNZpiRhpXm4dJzFKiJAjymc5UPVFCmcYplhQzWZ9cK262eiF+Y88d7rWR7T8iq5sttcozStUsa28NaTY+ajvmpfhllzchFwbyQcql6CWO7qH9sStM1YxGbneg86rmGtvU0B6lzJSKXvzIFmIZ1bZWf1CtW4EdcCkoDSDn0GCWTRfxiz7Q7qMXUSXckhMXsCFI5ktF79YkxsAbAbxYZBmROFz9oUmLqmdho2ILjXd4OC1gCaXer69CwdRvpkToUwxXBUaASBYYPVIqtXxxpUI3CgWtcLMYSdr0nkvOY/YRHnZ7J8pWxnhlzEVJdOGb1xvRel4cKia26uDqT4ifzFD4UjsXCXXwykPRYkv1Yu6MekDq8sbt+HeRK4igwjwLNqwwpsGMg18k9jSE1waRto1a3rs+fN+RcQtmEYCAhSJlxiy1FD41NCyQyn0XcJfUmA1TKK5e7/cSUO00NqgbJyXBMHTGQ6TEtHUBGHM85rOMgdc405AqoRgFm4+pyKditlYRi1t4Qv5lvlesJtUUT0ns8HdoYRVNqrbqlRS+3ElZZn5oYlVslYq1slKCVfTHlaIyM9nV4BmVaSYsa8ksIgyxGWeRav/ZJxgAAB4BJREFUWFQ/13B443Zuxe9cicjlr0wBHrbqXAoGL+s1DDUAtCOKY5mm4YpBtgngomh5oPSsrKnwFGlUsH/oEswIlD0928vDG/cWm3G2JXD5OApUoQCvYfjo2lv82rNxF68KQbhojgLnSAGA1DmWcBFmP7DxGAepi/B3uziaTO9sW3tc6vmNbRykLo7xefG1smH7zl0XX6vPtcVtG9cgaz5XonH5a6QAQGrtcaldwwfWXqdrHBBcsnOlQNv67WtvdO0dXscJfuc6crj8lSnAAKQqP7mUY7t3HuQgdSn/wOezbw1H13WuPS7VsH4np+N3PofdpVx3w/q1KAI1t+3cjjVwoSYKAD9vaGB4HL1qohaGbf/24TVolojBdx5oorlQGwWaRzohIUev2qjVdHT30TUIqaamdcPruVAjBQ538+h1Nablkq0fPoivQQuvdOf2dRDWow8uLEOBg8NtTNswR61lyDT3eHtT09pbnkCOEjvpzmYu1ECBpgPru3cexWtIySVBFEA+ONcepC7lBae69423a2fb8BpUsak7IbkCOQoUKMADXZNvc5DihgNHgXpRgLf38weH9zZwsky9CMqVs9Yp0ERuHB4mOUSt9XHA9b9uFGDw4Td30nUrjiuIo8Bap0ATb+cb65qZtU4Grv8cBepFgc6mdR/saeIgVS96cuWseQo0YIc/OMrjILXmBwJHgHpRYAQ78Is2urNexXHlcBRY6xQY4R19+xhvDaqtrfUfnuv/alGgide2e1czb7WK58rlKLDWKNDUcOzzuzo5SK21353r76pRoKnp2MZdq+2FbNVazxXMUeCCo0Bnw66Nu1bZCdkF12muQRwFlqAAeHqAp+zHEqmqPmKa2jZuH6nJVgeybV+1HO4BR4FLhALgyaEQzrI/DLYLLHXUFFA9NSXkEnEUuHgpAKMcx5HZBJw+u040YfReOFdXQ2bwwEJzkKqBUFySi5wCpDaVa2/PtevJYkdmhz3dKGKjUAQbOcdk0FUhXQOD8ZhmFlIojuE30qVHhW+UDP5IAS2xGOAZG4A3Fq+4L44ClxoFRNP2pNFozMpnIVUY9wwWS/aynUWjn/0rMJmi+AYzozlSsBBD942TCRylBo5UyFtKZpjEJa4UXoQSSs8WWlYGm5774ChwkVOAwfj+cIiA0EjjlNbawQf5jIgN6ilabFYEPFRchOHRflzZ4dHGaX7cqqUAL8LYoJYoQAoSW9V8TDSkwTHhEGFx+qOUWqPvx/kdVitkhtx6q0YSyvpiyliMxiBaS+EYoVbGrHEJx6wu8vHDNX8RBRCkxqlGgaCFxjRGtyOcIDHKr3K4/f1q35V2l8vvwcSBadGoSacyS2RhhzsbZQS5MVPeL2Q5jCfidKhcArEuT0kCfnXwiCIt85qcXaHcjNs+04eR2qDbkR912VpNsakILk77HE6dB7N4IypHOHb2K42LesJFcBS4QCjAn5KagkFTAA9FgjJDYCwhsmTlhi6nmQIuFcqZoljLVJbfZzfK1Ikxs0WW9Ye045P6QReBJLfGwIzckvKZRaNec9qXEBmAS8lbdQaNNZgzyMJBSe+MbqBvyhw3qvRU0ih2hc2G9HgPkZAaE7KZgOQCIQLXDI4C9aMAP+LOpdrbDbhc2pMwDKiMwri8zyBzJgUDUiuWAkiJp7KihFuGKYOqdJ/F7LZoIsnpLgNIfgyjnskmDAnfjJDWu6U5PuYZdzGy1j4Mi8oTFoNpXNxu02OYIIoHgrg4mSW8XhFG9/n0iYwWk5j9AEsucBS4xCjA93v5qEt4u63H5Up3yZRpU8pi9SUFMoBUOgiCXyQr6nMnMGrMl3K5XO1qnLAGjM4cTJSYWNgPUTk5nxly2FIiLAqQkissGDYQNvdps+P8LmkvhomjZMBE8pNZKmyCqvSq0YSvA5MEkp5LjJhcdzgKYGguJcZokOGGTBF9x2jAGjImtUMpR1Ips7laRsdd6kTYKEkApPi58bS6V56j1F2GocR4pBHIR/iDg2q9WS6xmiZTYQtDhacIucKA0RN2mdowMyMYdU72DgWm+AGfhkgaW8w+eYfVmI0OcJDiBt+lSgF+ZEzM9g0fVLkzTl28MWd3qsL2PGF1utPRpNQZDPpFhgwIc8JpR8apSrdEs45MJmxFOGS0PmfGmbcIk+MeybRRQ5hsabkNuJTc4c6o3DMeUVrlhjyYXJrUZrO4J+JwOlV6PBGOY6IuI3WpUpXr19qlAEP2Wgs7UowoJk8nQhhDGNKyoUGLWGCVx0TxAXmsI0Z6DB4AEGVJy/ViBo/2ueARSzSRWuaSxSUCixpnPJYQGUv3agYAKUK9XGbVjgowsV4u1zcyVCLh0eppjILC1RIsZBFgeIeeFTnXLvG5nl+CFCjs27I7r/SC7rFr5IXNJ3atu7A9C/On4gVsYLG7tbPZIO3CNADDQkBpIRRvUbJizYXH3CdHgTVDgRImqnYYJSggacmkix+yuKpaLPeAowBHAY4CHAU4CnAU4CjAUYCjAEcBjgIcBTgKcBTgKMBRgKMARwGOAhwFOApwFOAowFGAowBHAY4CK6LA/wehFK/gMFpFfgAAAABJRU5ErkJggg==;" vertex="1" parent="1">
          <mxGeometry x="-70" y="170" width="1100" height="459.41" as="geometry" />
        </mxCell>
      </root>
    </mxGraphModel>
  </diagram>
</mxfile>
